<svg xmlns="http://www.w3.org/2000/svg" xmlns:xlink="http://www.w3.org/1999/xlink" viewBox="0 0 276.4 141.06"><defs><style>.cls-1{fill:none;}.cls-2{fill:#1d8643;}.cls-3{opacity:0.85;}.cls-4{clip-path:url(#clip-path);}.cls-5{clip-path:url(#clip-path-2);}.cls-6{fill:#c0d22b;}.cls-7{fill:#fff;}.cls-8{fill:#208644;}.cls-8,.cls-9{fill-rule:evenodd;}.cls-10,.cls-9{fill:#031014;}.cls-11{clip-path:url(#clip-path-3);}.cls-12{clip-path:url(#clip-path-4);}.cls-13{fill:#545656;}</style><clipPath id="clip-path" transform="translate(0)"><rect class="cls-1" y="33.27" width="276.4" height="107.78"/></clipPath><clipPath id="clip-path-2" transform="translate(0)"><rect class="cls-1" y="33.27" width="276.4" height="107.78"/></clipPath><clipPath id="clip-path-3" transform="translate(0)"><rect class="cls-1" x="68.89" y="95.24" width="197.79" height="3.94"/></clipPath><clipPath id="clip-path-4" transform="translate(0)"><rect class="cls-1" x="68.89" y="95.24" width="197.79" height="3.94"/></clipPath></defs><title>Asset 1</title><g id="Layer_2" data-name="Layer 2"><g id="Layer_1-2" data-name="Layer 1"><path class="cls-2" d="M276.4,49.13V0H174.14a6.25,6.25,0,0,0-5.94,4.21c-.59,1.69-8,23.41-15.41,44.92Z" transform="translate(0)"/><g class="cls-3"><g class="cls-4"><g class="cls-5"><path class="cls-6" d="M276.4,141.06V33.27H47.21c-2.3,0-10.5.87-13.56,9.62C32.3,46.77,16.83,91.9,0,141.06Z" transform="translate(0)"/></g></g></g><path class="cls-2" d="M276.4,141.06V49.13H72.79a12.18,12.18,0,0,0-11.57,8.21c-1.15,3.3-14.34,41.79-28.7,83.71Z" transform="translate(0)"/><path class="cls-7" d="M276.4,49.13V2H176.11a6.25,6.25,0,0,0-5.93,4.21c-.59,1.69-7.36,21.45-14.73,43Z" transform="translate(0)"/><path class="cls-8" d="M186.94,18.63a2.87,2.87,0,1,0,0,5.73h4.39a2.69,2.69,0,0,0,2.1-1.2l4.28-7.33a4,4,0,0,1,3.15-1.8h6.73a7.5,7.5,0,1,1,0,15H205a2.71,2.71,0,0,0-2.1,1.2l-1.34,2.28h-5.5l3.71-6.35a4,4,0,0,1,3.15-1.8h4.65a2.87,2.87,0,1,0,0-5.73h-5.27a2.69,2.69,0,0,0-2.1,1.2l-4.31,7.4a4.06,4.06,0,0,1-3.15,1.8h-5.82a7.5,7.5,0,1,1,0-15h7.94l-2.68,4.59Z" transform="translate(0)"/><path class="cls-9" d="M183.22,42.56l-.19-.81a5.09,5.09,0,0,1-1.55.25c-.67,0-1.19-.42-1.19-1.35V39.32c0-1,.52-1.35,1.19-1.35a5.23,5.23,0,0,1,1.55.25l.19-.8a5.77,5.77,0,0,0-1.75-.27,2,2,0,0,0-2.12,2.09v1.49a2,2,0,0,0,2.12,2.09,5.76,5.76,0,0,0,1.75-.26" transform="translate(0)"/><path class="cls-9" d="M187.88,40.73V39.26a2.13,2.13,0,0,0-4.25,0v1.47a2.13,2.13,0,0,0,4.25,0m-.93-.09c0,1-.52,1.36-1.19,1.36s-1.19-.39-1.19-1.36V39.35c0-.94.52-1.37,1.19-1.37s1.19.43,1.19,1.37Z" transform="translate(0)"/><polygon class="cls-9" points="194.39 42.76 193.63 37.22 192.44 37.22 191.64 39.89 191.37 41.1 191.08 39.89 190.28 37.22 189.11 37.22 188.38 42.76 189.3 42.76 189.7 39.55 189.81 38.33 190.09 39.55 190.81 41.94 191.91 41.94 192.64 39.55 192.91 38.33 193.04 39.55 193.46 42.76 194.39 42.76"/><path class="cls-9" d="M199,41.11a1.32,1.32,0,0,0-.83-1.27,1.15,1.15,0,0,0,.63-1.06A1.59,1.59,0,0,0,197,37.22h-1.8v5.54h1.94A1.64,1.64,0,0,0,199,41.11m-1.13-2.34c0,.44-.17.74-.77.74h-.94V38H197c.61,0,.84.29.84.73m.19,2.34c0,.48-.26.81-.89.81h-1V40.3h1.08a.72.72,0,0,1,.82.82" transform="translate(0)"/><path class="cls-9" d="M203.83,40.73V39.26a2.13,2.13,0,0,0-4.25,0v1.47a2.13,2.13,0,0,0,4.25,0m-.93-.09c0,1-.52,1.36-1.19,1.36s-1.19-.39-1.19-1.36V39.35c0-.94.52-1.37,1.19-1.37s1.19.43,1.19,1.37Z" transform="translate(0)"/><rect class="cls-10" x="204.78" y="37.22" width="0.93" height="5.54"/><path class="cls-9" d="M210.91,40.73V39.26a2.13,2.13,0,0,0-4.25,0v1.47a2.13,2.13,0,0,0,4.25,0m-.93-.09c0,1-.52,1.36-1.19,1.36s-1.19-.39-1.19-1.36V39.35c0-.94.52-1.37,1.19-1.37s1.19.43,1.19,1.37Z" transform="translate(0)"/><path class="cls-9" d="M215.18,41.21c0-1-.73-1.39-1.36-1.65l-.45-.18c-.38-.17-.69-.35-.69-.75s.28-.66.84-.66a4.09,4.09,0,0,1,1.32.27l.25-.79a4.71,4.71,0,0,0-1.57-.31,1.58,1.58,0,0,0-1.78,1.5c0,1.15.92,1.37,1.75,1.74.38.17.74.38.74.84a.82.82,0,0,1-.9.77,5.35,5.35,0,0,1-1.54-.31l-.18.81a5.28,5.28,0,0,0,1.73.32,1.66,1.66,0,0,0,1.85-1.61" transform="translate(0)"/><path class="cls-9" d="M222.31,40.9V39.06a1.93,1.93,0,0,0-2-1.91,5.36,5.36,0,0,0-1.92.45v5.16h1.92a1.81,1.81,0,0,0,2-1.86m-.95-.09c0,.78-.34,1.11-1.07,1.11h-1V38.15a3.61,3.61,0,0,1,1-.18,1.06,1.06,0,0,1,1.07,1.18Z" transform="translate(0)"/><path class="cls-9" d="M226.46,42.76v-.83H224.9a.8.8,0,0,1-.86-.81.78.78,0,0,1,.86-.82h1.45l0-.77h-1.44c-.59,0-.85-.34-.85-.74s.23-.73.85-.73h1.53v-.83h-1.53a1.58,1.58,0,0,0-1.78,1.56,1.31,1.31,0,0,0,.72,1.13,1.39,1.39,0,0,0-.76,1.21,1.66,1.66,0,0,0,1.8,1.64Z" transform="translate(0)"/><path class="cls-9" d="M233.37,38.91a1.6,1.6,0,0,0-1.66-1.69h-2v5.54h.93V40.59h1a1.6,1.6,0,0,0,1.66-1.68m-.94,0c0,.56-.25.88-.72.88h-1V38h1c.47,0,.72.31.72.86" transform="translate(0)"/><path class="cls-9" d="M238.23,40.73V39.26a2.13,2.13,0,0,0-4.25,0v1.47a2.13,2.13,0,0,0,4.25,0m-.94-.09c0,1-.52,1.36-1.19,1.36s-1.19-.39-1.19-1.36V39.35c0-.94.52-1.37,1.19-1.37s1.19.43,1.19,1.37Z" transform="translate(0)"/><path class="cls-9" d="M242.89,42.76l-1.17-2.4a1.6,1.6,0,0,0,1.06-1.52A1.64,1.64,0,0,0,241,37.22h-1.9v5.54h.94V40.47h.74l1.08,2.29Zm-1.05-3.91a.75.75,0,0,1-.8.82h-1V38h1a.74.74,0,0,1,.8.79" transform="translate(0)"/><polygon class="cls-9" points="247.32 37.22 243.31 37.22 243.31 38.05 244.84 38.05 244.84 42.76 245.78 42.76 245.78 38.05 247.27 38.05 247.32 37.22"/><path class="cls-9" d="M252,40.9V37.21h-.93v3.61a1.07,1.07,0,1,1-2.14,0V37.21H248V40.9a2,2,0,0,0,4,0" transform="translate(0)"/><path class="cls-9" d="M256.9,42.52V39.79h-1.55v.63l.63.06V41.9a5,5,0,0,1-.93.09c-.67,0-1.19-.41-1.19-1.35V39.32A1.18,1.18,0,0,1,255.05,38a5.56,5.56,0,0,1,1.57.25l.21-.79a6.18,6.18,0,0,0-1.79-.29,2,2,0,0,0-2.12,2.09v1.5A2,2,0,0,0,255,42.82a6.37,6.37,0,0,0,1.86-.31" transform="translate(0)"/><path class="cls-9" d="M262.62,42.76l-2-5.54h-1.23l-2,5.54h.94l.54-1.61h2.17l.54,1.61Zm-1.74-2.35H259.2l.84-2.48Z" transform="translate(0)"/><polygon class="cls-9" points="266.68 41.93 264.17 41.93 264.17 37.22 263.23 37.22 263.23 42.76 266.61 42.76 266.68 41.93"/><g class="cls-3"><g class="cls-11"><g class="cls-12"><rect class="cls-6" x="68.89" y="95.24" width="197.79" height="3.94"/></g></g></g><path class="cls-7" d="M76.71,65.69a3,3,0,0,1,.88,2.2,3.54,3.54,0,0,1-.59,2A3.91,3.91,0,0,1,75.3,71.3a6.13,6.13,0,0,1-2.55.49,8.5,8.5,0,0,1-2.58-.4A6.87,6.87,0,0,1,68,70.33l1.16-2.19a5.52,5.52,0,0,0,1.6,1,4.74,4.74,0,0,0,1.7.32A2.54,2.54,0,0,0,74,69a1.27,1.27,0,0,0,.53-1.1A1.25,1.25,0,0,0,74,66.84a2.62,2.62,0,0,0-1.53-.37h-2v-1.7l2.75-2.65H68.67V59.74H77v1.8l-3.25,3,.63.12A4,4,0,0,1,76.71,65.69Z" transform="translate(0)"/><path class="cls-7" d="M88,61.2a6.61,6.61,0,0,1,1.37,4.49A6.64,6.64,0,0,1,88,70.18a5.67,5.67,0,0,1-7.84,0,6.64,6.64,0,0,1-1.37-4.5,6.61,6.61,0,0,1,1.37-4.49,5.69,5.69,0,0,1,7.84,0Zm-5.52,1.62A6.15,6.15,0,0,0,82,65.69a6.2,6.2,0,0,0,.49,2.88,1.9,1.9,0,0,0,3.2,0,6.12,6.12,0,0,0,.5-2.87,6.06,6.06,0,0,0-.5-2.86,1.9,1.9,0,0,0-3.2,0Z" transform="translate(0)"/><path class="cls-7" d="M96.25,60.66a4.3,4.3,0,0,1,0,5.27,3.52,3.52,0,0,1-4.87,0,4.27,4.27,0,0,1,0-5.27,3.52,3.52,0,0,1,4.87,0Zm-3.47,1.18a3,3,0,0,0,0,2.89,1.28,1.28,0,0,0,2.07,0,3,3,0,0,0,0-2.89,1.28,1.28,0,0,0-2.07,0Zm8.92-2.11h2.09L95.33,71.65H93.22Zm4,5.74a4.3,4.3,0,0,1,0,5.27,3.52,3.52,0,0,1-4.87,0,4.27,4.27,0,0,1,0-5.27,3.52,3.52,0,0,1,4.87,0Zm-3.47,1.18a3,3,0,0,0,0,2.89,1.28,1.28,0,0,0,2.07,0,3,3,0,0,0,0-2.89,1.28,1.28,0,0,0-2.07,0Z" transform="translate(0)"/><path class="cls-7" d="M120.36,60.48a5.48,5.48,0,0,1,2.24,2.1,6.41,6.41,0,0,1,0,6.21,5.46,5.46,0,0,1-2.28,2.11,7.34,7.34,0,0,1-3.37.75h-5V59.74h5.13A7.05,7.05,0,0,1,120.36,60.48Zm-1.62,8.23a2.89,2.89,0,0,0,1.09-1.21,3.93,3.93,0,0,0,.39-1.78,3.78,3.78,0,0,0-.42-1.8,3.05,3.05,0,0,0-1.15-1.21,3.2,3.2,0,0,0-1.67-.43h-2v6.87h2.11A3,3,0,0,0,118.74,68.71Z" transform="translate(0)"/><path class="cls-7" d="M132.44,63.68a5.2,5.2,0,0,1,1.21,3.64c0,.24,0,.42,0,.54h-6.39a2.2,2.2,0,0,0,.76,1.2,2.11,2.11,0,0,0,1.33.42,2.86,2.86,0,0,0,1.15-.24,3.23,3.23,0,0,0,1-.7l1.58,1.58a4.66,4.66,0,0,1-1.73,1.22,6,6,0,0,1-2.29.42,5.51,5.51,0,0,1-2.58-.58,4,4,0,0,1-1.69-1.63,5,5,0,0,1-.59-2.45,5.08,5.08,0,0,1,.59-2.49,4.12,4.12,0,0,1,1.68-1.67,5.22,5.22,0,0,1,2.52-.59A4.43,4.43,0,0,1,132.44,63.68Zm-1.73,2.57a1.77,1.77,0,0,0-.47-1.28,1.78,1.78,0,0,0-2.43,0,2.37,2.37,0,0,0-.64,1.29Z" transform="translate(0)"/><path class="cls-7" d="M138.41,64.43a1.2,1.2,0,0,0-.63.14.47.47,0,0,0-.24.43.56.56,0,0,0,.37.49,6.89,6.89,0,0,0,1.19.41,15.14,15.14,0,0,1,1.64.57,3,3,0,0,1,1.13.85,2.24,2.24,0,0,1,.48,1.49A2.56,2.56,0,0,1,141.27,71a4.65,4.65,0,0,1-2.81.79,7.56,7.56,0,0,1-2.24-.33,5.94,5.94,0,0,1-1.9-1l1-2a6.72,6.72,0,0,0,1.64.84,5,5,0,0,0,1.62.3,1.47,1.47,0,0,0,.71-.14.45.45,0,0,0,.26-.42.58.58,0,0,0-.38-.53,7.35,7.35,0,0,0-1.2-.41,13.32,13.32,0,0,1-1.6-.57,3,3,0,0,1-1.1-.84,2.2,2.2,0,0,1-.47-1.46,2.58,2.58,0,0,1,1.05-2.18,4.42,4.42,0,0,1,2.72-.79,7.39,7.39,0,0,1,3.83,1.07l-1,2A6.74,6.74,0,0,0,138.41,64.43Z" transform="translate(0)"/><path class="cls-7" d="M148.11,64.85a1.64,1.64,0,0,0-1.33.62,2.8,2.8,0,0,0,0,3.22,1.64,1.64,0,0,0,1.33.61,1.88,1.88,0,0,0,1.8-1l2.23,1.27a3.79,3.79,0,0,1-1.63,1.63,5.37,5.37,0,0,1-2.55.58,5.15,5.15,0,0,1-2.48-.58,4.07,4.07,0,0,1-1.66-1.63,5,5,0,0,1-.59-2.45,5.08,5.08,0,0,1,.59-2.49,4.13,4.13,0,0,1,1.67-1.67,5.57,5.57,0,0,1,4.94,0,4.1,4.1,0,0,1,1.67,1.61l-2.19,1.28A2.06,2.06,0,0,0,148.11,64.85Z" transform="translate(0)"/><path class="cls-7" d="M160.18,62.94A4.29,4.29,0,0,1,162,64.59a5.14,5.14,0,0,1,0,4.93,4.29,4.29,0,0,1-1.77,1.65,6.22,6.22,0,0,1-5.27,0,4.23,4.23,0,0,1-1.76-1.65,5.21,5.21,0,0,1,0-4.93,4.24,4.24,0,0,1,1.76-1.65,6.22,6.22,0,0,1,5.27,0Zm-4.06,2.49a2.43,2.43,0,0,0-.54,1.65,2.46,2.46,0,0,0,.54,1.67,1.79,1.79,0,0,0,1.43.63,1.81,1.81,0,0,0,1.45-.63,2.46,2.46,0,0,0,.54-1.67,2.41,2.41,0,0,0-.55-1.65,1.82,1.82,0,0,0-1.44-.63A1.79,1.79,0,0,0,156.12,65.43Z" transform="translate(0)"/><path class="cls-7" d="M172.62,63.29a3.56,3.56,0,0,1,.91,2.57v5.8h-3V66.72a1.72,1.72,0,0,0-.42-1.23A1.49,1.49,0,0,0,169,65a1.75,1.75,0,0,0-1.23.49,2,2,0,0,0-.57,1.26v4.86h-3v-9.2h3V64a3.27,3.27,0,0,1,1.27-1.21,3.75,3.75,0,0,1,1.78-.41A3.19,3.19,0,0,1,172.62,63.29Z" transform="translate(0)"/><path class="cls-7" d="M181.57,71.18a4.56,4.56,0,0,1-1.17.45,5.67,5.67,0,0,1-1.34.16,3.1,3.1,0,0,1-2.2-.78,2.8,2.8,0,0,1-.84-2.16V64.9h-1.27v-2H176V60.35h3V62.9h2.38v2H179v3.47q0,1,.8,1A3,3,0,0,0,181,69Z" transform="translate(0)"/><path class="cls-7" d="M189.86,62.94a4.29,4.29,0,0,1,1.77,1.65,5.14,5.14,0,0,1,0,4.93,4.29,4.29,0,0,1-1.77,1.65,6.22,6.22,0,0,1-5.27,0,4.23,4.23,0,0,1-1.76-1.65,5.21,5.21,0,0,1,0-4.93,4.24,4.24,0,0,1,1.76-1.65,6.22,6.22,0,0,1,5.27,0Zm-4.06,2.49a2.43,2.43,0,0,0-.54,1.65,2.46,2.46,0,0,0,.54,1.67,1.79,1.79,0,0,0,1.43.63,1.81,1.81,0,0,0,1.45-.63,2.46,2.46,0,0,0,.54-1.67,2.41,2.41,0,0,0-.55-1.65,1.82,1.82,0,0,0-1.44-.63A1.79,1.79,0,0,0,185.8,65.43Z" transform="translate(0)"/><path class="cls-7" d="M69.09,77.65h1.15v8.4H69.09Z" transform="translate(0)"/><path class="cls-7" d="M77,80.32a2.48,2.48,0,0,1,.64,1.81v3.92H76.57V82.43a1.56,1.56,0,0,0-1.69-1.7,1.92,1.92,0,0,0-1.39.55,2.15,2.15,0,0,0-.61,1.39v3.4H71.77V79.7h1.12V81a2.45,2.45,0,0,1,2.41-1.38A2.33,2.33,0,0,1,77,80.32Z" transform="translate(0)"/><path class="cls-7" d="M82.31,85.63a2.74,2.74,0,0,1-1.49.47,1.69,1.69,0,0,1-1.22-.45,1.81,1.81,0,0,1-.47-1.36V80.77h-.9v-.85h.9v-1.7h1.13v1.7h1.94v.85H80.26v3.31a1.17,1.17,0,0,0,.19.76.71.71,0,0,0,.58.23,2,2,0,0,0,1-.3Z" transform="translate(0)"/><path class="cls-7" d="M87.59,80.54A3.57,3.57,0,0,1,88.35,83c0,.16,0,.28,0,.36h-5A2.16,2.16,0,0,0,84,84.67a2.11,2.11,0,0,0,1.43.5,2.69,2.69,0,0,0,1-.2,2.52,2.52,0,0,0,.85-.58L88,85a3.2,3.2,0,0,1-1.13.78,3.75,3.75,0,0,1-1.46.28,3.37,3.37,0,0,1-1.66-.4,2.81,2.81,0,0,1-1.13-1.13,3.65,3.65,0,0,1,0-3.33,2.92,2.92,0,0,1,1.12-1.14,3.23,3.23,0,0,1,1.64-.41A2.8,2.8,0,0,1,87.59,80.54Zm-.25,1.91a1.84,1.84,0,0,0-2-1.86,2,2,0,0,0-1.4.5,2.11,2.11,0,0,0-.67,1.36Z" transform="translate(0)"/><path class="cls-7" d="M91.11,80a2.63,2.63,0,0,1,1.37-.37v1.08a2,2,0,0,0-2.26,2v3.35H89.11V79.7h1.12v1.37A2.3,2.3,0,0,1,91.11,80Z" transform="translate(0)"/><path class="cls-7" d="M95.56,80.66a2.21,2.21,0,0,0-1.11.28,2,2,0,0,0-.76.78,2.39,2.39,0,0,0-.28,1.16A2.42,2.42,0,0,0,93.68,84a2,2,0,0,0,.74.79,2.09,2.09,0,0,0,1.09.28,2.86,2.86,0,0,0,1.1-.2,2.11,2.11,0,0,0,.82-.59l.64.65a2.81,2.81,0,0,1-1.1.83,3.75,3.75,0,0,1-1.51.29,3.27,3.27,0,0,1-1.64-.41,2.88,2.88,0,0,1-1.12-1.13,3.65,3.65,0,0,1,0-3.33,2.87,2.87,0,0,1,1.12-1.14,3.27,3.27,0,0,1,1.64-.41,4,4,0,0,1,1.45.25,2.79,2.79,0,0,1,1.07.71l-.61.77A2.51,2.51,0,0,0,95.56,80.66Z" transform="translate(0)"/><path class="cls-7" d="M99.95,77.38a.77.77,0,0,1,0,1,.71.71,0,0,1-1,0,.77.77,0,0,1,0-1,.71.71,0,0,1,1,0ZM98.9,79.7H100v6.35H98.9Z" transform="translate(0)"/><path class="cls-7" d="M107.33,77.15v8.9h-1.12V84.79a2.52,2.52,0,0,1-1,1,2.81,2.81,0,0,1-1.41.34,3,3,0,0,1-1.59-.41,2.84,2.84,0,0,1-1.07-1.15,3.6,3.6,0,0,1-.38-1.69,3.49,3.49,0,0,1,.38-1.66,2.82,2.82,0,0,1,1.07-1.13,3,3,0,0,1,1.58-.41,2.92,2.92,0,0,1,1.43.34,2.39,2.39,0,0,1,1,1V77.15Zm-2.15,7.72a2,2,0,0,0,.76-.8,2.43,2.43,0,0,0,.28-1.16,2.46,2.46,0,0,0-.28-1.18,2,2,0,0,0-.76-.8,2.13,2.13,0,0,0-1.11-.29,2.1,2.1,0,0,0-1.11.29,2.07,2.07,0,0,0-.76.81,2.59,2.59,0,0,0,0,2.33,2,2,0,0,0,.76.8,2.28,2.28,0,0,0,2.22,0Z" transform="translate(0)"/><path class="cls-7" d="M112.69,86.05v-.89a2.6,2.6,0,0,1-2.22.94,2.53,2.53,0,0,1-1.16-.25,1.85,1.85,0,0,1-.77-.7,1.88,1.88,0,0,1-.27-1,1.63,1.63,0,0,1,.63-1.35,2.82,2.82,0,0,1,1.76-.51h2V82a1.31,1.31,0,0,0-.41-1,1.77,1.77,0,0,0-1.21-.37,3.45,3.45,0,0,0-2,.68l-.47-.77a5.8,5.8,0,0,1,1.27-.64,4.29,4.29,0,0,1,1.39-.2,2.66,2.66,0,0,1,1.84.58,2.11,2.11,0,0,1,.66,1.63v4.18ZM112,84.8a1.49,1.49,0,0,0,.65-1v-.64h-1.86a2.17,2.17,0,0,0-1.12.23.79.79,0,0,0-.37.72.94.94,0,0,0,.37.78,1.58,1.58,0,0,0,1,.29A2.27,2.27,0,0,0,112,84.8Z" transform="translate(0)"/><path class="cls-7" d="M120.93,77.15v8.9h-1.12V84.79a2.52,2.52,0,0,1-1,1,2.81,2.81,0,0,1-1.41.34,3,3,0,0,1-1.59-.41,2.84,2.84,0,0,1-1.07-1.15,3.6,3.6,0,0,1-.38-1.69,3.49,3.49,0,0,1,.38-1.66,2.82,2.82,0,0,1,1.07-1.13,3,3,0,0,1,1.58-.41,2.92,2.92,0,0,1,1.43.34,2.39,2.39,0,0,1,1,1V77.15Zm-2.15,7.72a2,2,0,0,0,.76-.8,2.43,2.43,0,0,0,.28-1.16,2.46,2.46,0,0,0-.28-1.18,2,2,0,0,0-.76-.8,2.13,2.13,0,0,0-1.11-.29,2.1,2.1,0,0,0-1.11.29,2.07,2.07,0,0,0-.76.81,2.59,2.59,0,0,0,0,2.33,2,2,0,0,0,.76.8,2.28,2.28,0,0,0,2.22,0Z" transform="translate(0)"/><path class="cls-7" d="M127.18,80.54a3.57,3.57,0,0,1,.76,2.42c0,.16,0,.28,0,.36h-5a2.16,2.16,0,0,0,.71,1.36,2.11,2.11,0,0,0,1.43.5,2.69,2.69,0,0,0,1-.2,2.52,2.52,0,0,0,.85-.58l.61.64a3.2,3.2,0,0,1-1.13.78,3.75,3.75,0,0,1-1.46.28,3.37,3.37,0,0,1-1.66-.4,2.81,2.81,0,0,1-1.13-1.13,3.65,3.65,0,0,1,0-3.33,2.92,2.92,0,0,1,1.12-1.14,3.23,3.23,0,0,1,1.64-.41A2.8,2.8,0,0,1,127.18,80.54Zm-.25,1.91a1.84,1.84,0,0,0-2-1.86,2,2,0,0,0-1.4.5,2.11,2.11,0,0,0-.67,1.36Z" transform="translate(0)"/><path class="cls-7" d="M131.29,80.72a3.12,3.12,0,0,0-.91-.14,1.55,1.55,0,0,0-.81.19.62.62,0,0,0-.31.57.63.63,0,0,0,.34.58,5,5,0,0,0,1,.4,8.25,8.25,0,0,1,1.08.38,1.91,1.91,0,0,1,.71.56,1.54,1.54,0,0,1,.29,1,1.56,1.56,0,0,1-.68,1.37,2.9,2.9,0,0,1-1.69.47,4.2,4.2,0,0,1-1.37-.23,3.11,3.11,0,0,1-1.12-.65l.42-.82a3,3,0,0,0,1,.58,3.24,3.24,0,0,0,1.13.22,1.69,1.69,0,0,0,.89-.2.68.68,0,0,0,.34-.62.71.71,0,0,0-.35-.65,4.82,4.82,0,0,0-1.07-.43,7.09,7.09,0,0,1-1-.37,1.85,1.85,0,0,1-.68-.55,1.48,1.48,0,0,1-.28-.94,1.51,1.51,0,0,1,.65-1.33,2.8,2.8,0,0,1,1.62-.44,4.07,4.07,0,0,1,1.13.16,3.43,3.43,0,0,1,1,.44l-.41.85A3.83,3.83,0,0,0,131.29,80.72Z" transform="translate(0)"/><path class="cls-7" d="M135.85,76.3h.86V87.48h-.86Z" transform="translate(0)"/><path class="cls-7" d="M146.06,86.05l-1.67-2.64-.47,0h-2.14v2.62h-1.15v-8.4h3.29a3.7,3.7,0,0,1,2.47.74,2.6,2.6,0,0,1,.87,2.09,3,3,0,0,1-.47,1.72,2.66,2.66,0,0,1-1.36,1l2,2.84Zm-2.14-3.66a2.55,2.55,0,0,0,1.66-.47,1.71,1.71,0,0,0,.58-1.4,1.64,1.64,0,0,0-.58-1.36,2.59,2.59,0,0,0-1.66-.46h-2.14v3.7Z" transform="translate(0)"/><path class="cls-7" d="M153.21,80.54A3.57,3.57,0,0,1,154,83c0,.16,0,.28,0,.36h-5a2.16,2.16,0,0,0,.71,1.36,2.11,2.11,0,0,0,1.43.5,2.69,2.69,0,0,0,1-.2,2.52,2.52,0,0,0,.85-.58l.61.64a3.2,3.2,0,0,1-1.13.78,3.75,3.75,0,0,1-1.46.28,3.37,3.37,0,0,1-1.66-.4,2.81,2.81,0,0,1-1.13-1.13,3.65,3.65,0,0,1,0-3.33,2.92,2.92,0,0,1,1.12-1.14,3.23,3.23,0,0,1,1.64-.41A2.8,2.8,0,0,1,153.21,80.54ZM153,82.45a1.84,1.84,0,0,0-2-1.86,2,2,0,0,0-1.4.5,2.11,2.11,0,0,0-.67,1.36Z" transform="translate(0)"/><path class="cls-7" d="M160.34,79.7v5.7a3.1,3.1,0,0,1-.4,1.6,2.67,2.67,0,0,1-1.13,1,3.76,3.76,0,0,1-1.7.37,4.34,4.34,0,0,1-2.62-.89l.49-.82a3.4,3.4,0,0,0,1,.57,3.19,3.19,0,0,0,1.1.19,2.21,2.21,0,0,0,1.57-.55,1.93,1.93,0,0,0,.59-1.48v-.89a2.36,2.36,0,0,1-.91.89,2.68,2.68,0,0,1-1.32.32,2.89,2.89,0,0,1-1.51-.39,2.65,2.65,0,0,1-1-1.09,3.42,3.42,0,0,1-.36-1.6,3.32,3.32,0,0,1,.36-1.57,2.63,2.63,0,0,1,1-1.07,2.92,2.92,0,0,1,1.51-.38,2.72,2.72,0,0,1,1.33.31,2.33,2.33,0,0,1,.91.89V79.7Zm-2.1,4.88a1.93,1.93,0,0,0,.71-.76,2.49,2.49,0,0,0,0-2.21,1.93,1.93,0,0,0-.71-.76,2,2,0,0,0-1-.28,2,2,0,0,0-1,.28,2,2,0,0,0-.73.76,2.28,2.28,0,0,0-.26,1.11,2.19,2.19,0,0,0,.58,1.54,1.92,1.92,0,0,0,1.46.6A2,2,0,0,0,158.24,84.59Z" transform="translate(0)"/><path class="cls-7" d="M162.66,77.38a.77.77,0,0,1,0,1,.71.71,0,0,1-1,0,.77.77,0,0,1,0-1,.71.71,0,0,1,1,0Zm-1.05,2.33h1.12v6.35h-1.12Z" transform="translate(0)"/><path class="cls-7" d="M168.46,80.08a2.93,2.93,0,0,1,1.15,1.13,3.55,3.55,0,0,1,0,3.33,2.92,2.92,0,0,1-1.15,1.14,3.71,3.71,0,0,1-3.38,0,2.93,2.93,0,0,1-1.15-1.13,3.57,3.57,0,0,1,0-3.34,2.93,2.93,0,0,1,1.15-1.13,3.71,3.71,0,0,1,3.38,0Zm-2.8.85a2,2,0,0,0-.76.8,2.44,2.44,0,0,0-.27,1.16,2.49,2.49,0,0,0,.27,1.18,1.93,1.93,0,0,0,.76.8,2.17,2.17,0,0,0,1.11.28,2.14,2.14,0,0,0,1.1-.28,1.94,1.94,0,0,0,.76-.8,2.49,2.49,0,0,0,.27-1.18,2.44,2.44,0,0,0-.27-1.16,2,2,0,0,0-.76-.8,2.11,2.11,0,0,0-1.1-.29A2.13,2.13,0,0,0,165.66,80.93Z" transform="translate(0)"/><path class="cls-7" d="M176.09,80.32a2.48,2.48,0,0,1,.64,1.81v3.92h-1.12V82.43a1.56,1.56,0,0,0-1.69-1.7,1.92,1.92,0,0,0-1.39.55,2.15,2.15,0,0,0-.61,1.39v3.4h-1.12V79.7h1.12V81a2.45,2.45,0,0,1,2.41-1.38A2.33,2.33,0,0,1,176.09,80.32Z" transform="translate(0)"/><path class="cls-7" d="M181.83,86.05v-.89a2.6,2.6,0,0,1-2.22.94,2.53,2.53,0,0,1-1.16-.25,1.85,1.85,0,0,1-.77-.7,1.88,1.88,0,0,1-.27-1,1.63,1.63,0,0,1,.63-1.35,2.82,2.82,0,0,1,1.76-.51h2V82a1.31,1.31,0,0,0-.41-1,1.77,1.77,0,0,0-1.21-.37,3.45,3.45,0,0,0-2,.68l-.47-.77a5.8,5.8,0,0,1,1.27-.64,4.29,4.29,0,0,1,1.39-.2,2.66,2.66,0,0,1,1.84.58,2.11,2.11,0,0,1,.66,1.63v4.18Zm-.67-1.25a1.49,1.49,0,0,0,.65-1v-.64H180a2.17,2.17,0,0,0-1.12.23.79.79,0,0,0-.37.72.94.94,0,0,0,.37.78,1.58,1.58,0,0,0,1,.29A2.27,2.27,0,0,0,181.16,84.8Z" transform="translate(0)"/><path class="cls-7" d="M184.22,77.15h1.12v8.9h-1.12Z" transform="translate(0)"/><path class="cls-7" d="M189.21,76.3h.86V87.48h-.86Z" transform="translate(0)"/><path class="cls-7" d="M194,77.65h1.15v8.4H194Z" transform="translate(0)"/><path class="cls-7" d="M202,80.32a2.48,2.48,0,0,1,.64,1.81v3.92h-1.12V82.43a1.56,1.56,0,0,0-1.69-1.7,1.92,1.92,0,0,0-1.39.55,2.15,2.15,0,0,0-.61,1.39v3.4h-1.12V79.7h1.12V81a2.45,2.45,0,0,1,2.41-1.38A2.33,2.33,0,0,1,202,80.32Z" transform="translate(0)"/><path class="cls-7" d="M207.22,85.63a2.74,2.74,0,0,1-1.49.47,1.69,1.69,0,0,1-1.22-.45,1.81,1.81,0,0,1-.47-1.36V80.77h-.9v-.85h.9v-1.7h1.13v1.7h1.94v.85h-1.94v3.31a1.17,1.17,0,0,0,.19.76.71.71,0,0,0,.58.23,2,2,0,0,0,1-.3Z" transform="translate(0)"/><path class="cls-7" d="M212.5,80.54a3.57,3.57,0,0,1,.76,2.42c0,.16,0,.28,0,.36h-5a2.16,2.16,0,0,0,.71,1.36,2.11,2.11,0,0,0,1.43.5,2.69,2.69,0,0,0,1-.2,2.52,2.52,0,0,0,.85-.58l.61.64a3.2,3.2,0,0,1-1.13.78,3.75,3.75,0,0,1-1.46.28,3.37,3.37,0,0,1-1.66-.4,2.81,2.81,0,0,1-1.13-1.13,3.65,3.65,0,0,1,0-3.33,2.92,2.92,0,0,1,1.12-1.14,3.23,3.23,0,0,1,1.64-.41A2.8,2.8,0,0,1,212.5,80.54Zm-.25,1.91a1.84,1.84,0,0,0-2-1.86,2,2,0,0,0-1.4.5,2.11,2.11,0,0,0-.67,1.36Z" transform="translate(0)"/><path class="cls-7" d="M216,80a2.63,2.63,0,0,1,1.37-.37v1.08a2,2,0,0,0-2.26,2v3.35H214V79.7h1.12v1.37A2.3,2.3,0,0,1,216,80Z" transform="translate(0)"/><path class="cls-7" d="M223.36,86.05l-1.67-2.64-.47,0h-2.14v2.62h-1.15v-8.4h3.29a3.7,3.7,0,0,1,2.47.74,2.6,2.6,0,0,1,.87,2.09,3,3,0,0,1-.47,1.72,2.66,2.66,0,0,1-1.36,1l2,2.84Zm-2.14-3.66a2.55,2.55,0,0,0,1.66-.47,1.71,1.71,0,0,0,.58-1.4,1.64,1.64,0,0,0-.58-1.36,2.59,2.59,0,0,0-1.66-.46h-2.14v3.7Z" transform="translate(0)"/><path class="cls-7" d="M230.51,80.54a3.57,3.57,0,0,1,.76,2.42c0,.16,0,.28,0,.36h-5a2.16,2.16,0,0,0,.71,1.36,2.11,2.11,0,0,0,1.43.5,2.69,2.69,0,0,0,1-.2,2.52,2.52,0,0,0,.85-.58l.61.64a3.2,3.2,0,0,1-1.13.78,3.75,3.75,0,0,1-1.46.28,3.37,3.37,0,0,1-1.66-.4,2.81,2.81,0,0,1-1.13-1.13,3.65,3.65,0,0,1,0-3.33,2.92,2.92,0,0,1,1.12-1.14,3.23,3.23,0,0,1,1.64-.41A2.8,2.8,0,0,1,230.51,80.54Zm-.25,1.91a1.84,1.84,0,0,0-2-1.86,2,2,0,0,0-1.4.5,2.11,2.11,0,0,0-.67,1.36Z" transform="translate(0)"/><path class="cls-7" d="M237.64,79.7v5.7a3.1,3.1,0,0,1-.4,1.6,2.67,2.67,0,0,1-1.13,1,3.76,3.76,0,0,1-1.7.37,4.34,4.34,0,0,1-2.62-.89l.49-.82a3.4,3.4,0,0,0,1,.57,3.19,3.19,0,0,0,1.1.19,2.21,2.21,0,0,0,1.57-.55,1.93,1.93,0,0,0,.59-1.48v-.89a2.36,2.36,0,0,1-.91.89,2.68,2.68,0,0,1-1.32.32,2.89,2.89,0,0,1-1.51-.39,2.65,2.65,0,0,1-1-1.09,3.42,3.42,0,0,1-.36-1.6,3.32,3.32,0,0,1,.36-1.57,2.63,2.63,0,0,1,1-1.07,2.92,2.92,0,0,1,1.51-.38,2.72,2.72,0,0,1,1.33.31,2.33,2.33,0,0,1,.91.89V79.7Zm-2.1,4.88a1.93,1.93,0,0,0,.71-.76,2.49,2.49,0,0,0,0-2.21,1.93,1.93,0,0,0-.71-.76,2,2,0,0,0-1-.28,2,2,0,0,0-1,.28,2,2,0,0,0-.73.76,2.28,2.28,0,0,0-.26,1.11,2.19,2.19,0,0,0,.58,1.54,1.92,1.92,0,0,0,1.46.6A2,2,0,0,0,235.54,84.59Z" transform="translate(0)"/><path class="cls-7" d="M240,77.38a.77.77,0,0,1,0,1,.71.71,0,0,1-1,0,.77.77,0,0,1,0-1,.71.71,0,0,1,1,0Zm-1.05,2.33H240v6.35h-1.12Z" transform="translate(0)"/><path class="cls-7" d="M245.76,80.08a2.93,2.93,0,0,1,1.15,1.13,3.55,3.55,0,0,1,0,3.33,2.92,2.92,0,0,1-1.15,1.14,3.71,3.71,0,0,1-3.38,0,2.93,2.93,0,0,1-1.15-1.13,3.57,3.57,0,0,1,0-3.34,2.93,2.93,0,0,1,1.15-1.13,3.71,3.71,0,0,1,3.38,0Zm-2.8.85a2,2,0,0,0-.76.8,2.44,2.44,0,0,0-.27,1.16,2.49,2.49,0,0,0,.27,1.18,1.93,1.93,0,0,0,.76.8,2.17,2.17,0,0,0,1.11.28,2.14,2.14,0,0,0,1.1-.28,1.94,1.94,0,0,0,.76-.8,2.49,2.49,0,0,0,.27-1.18,2.44,2.44,0,0,0-.27-1.16,2,2,0,0,0-.76-.8,2.11,2.11,0,0,0-1.1-.29A2.13,2.13,0,0,0,243,80.93Z" transform="translate(0)"/><path class="cls-7" d="M253.4,80.32a2.48,2.48,0,0,1,.64,1.81v3.92h-1.12V82.43a1.56,1.56,0,0,0-1.69-1.7,1.92,1.92,0,0,0-1.39.55,2.15,2.15,0,0,0-.61,1.39v3.4h-1.12V79.7h1.12V81a2.45,2.45,0,0,1,2.41-1.38A2.33,2.33,0,0,1,253.4,80.32Z" transform="translate(0)"/><path class="cls-7" d="M259.13,86.05v-.89a2.6,2.6,0,0,1-2.22.94,2.53,2.53,0,0,1-1.16-.25,1.85,1.85,0,0,1-.77-.7,1.88,1.88,0,0,1-.27-1,1.63,1.63,0,0,1,.63-1.35,2.82,2.82,0,0,1,1.76-.51h2V82a1.31,1.31,0,0,0-.41-1,1.77,1.77,0,0,0-1.21-.37,3.45,3.45,0,0,0-2,.68l-.47-.77a5.8,5.8,0,0,1,1.27-.64,4.29,4.29,0,0,1,1.39-.2,2.66,2.66,0,0,1,1.84.58,2.11,2.11,0,0,1,.66,1.63v4.18Zm-.67-1.25a1.49,1.49,0,0,0,.65-1v-.64h-1.86a2.17,2.17,0,0,0-1.12.23.79.79,0,0,0-.37.72.94.94,0,0,0,.37.78,1.58,1.58,0,0,0,1,.29A2.27,2.27,0,0,0,258.46,84.8Z" transform="translate(0)"/><path class="cls-7" d="M261.52,77.15h1.12v8.9h-1.12Z" transform="translate(0)"/><path class="cls-7" d="M79.65,112.09v2.36H78.12V117H75.26v-2.57H69.87v-2.11l3.38-7.24h3l-3.18,7h2.23v-2.53h2.86v2.53Z" transform="translate(0)"/><path class="cls-7" d="M90,114a4.85,4.85,0,0,0,1.43-1l1.8,2a7.23,7.23,0,0,1-2.28,1.61,6.35,6.35,0,0,1-2.65.6,6.56,6.56,0,0,1-2.74-.57A5.9,5.9,0,0,1,83.41,115a5.84,5.84,0,0,1-1.2-2.35H80.67v-1.12H82c0-.11,0-.28,0-.49a3,3,0,0,1,0-.37H80.67v-1.12H82.2a5.6,5.6,0,0,1,1.21-2.35,6.06,6.06,0,0,1,2.17-1.6,6.86,6.86,0,0,1,2.81-.57,6.67,6.67,0,0,1,2.63.55,6.41,6.41,0,0,1,2.18,1.49l-1.8,2.16A4.65,4.65,0,0,0,90,108.07a3.35,3.35,0,0,0-1.58-.42,3.17,3.17,0,0,0-2.92,1.89H89.3v1.12h-4.1a2.61,2.61,0,0,0,0,.34c0,.12,0,.3,0,.53H89.3v1.12H85.58a3.16,3.16,0,0,0,2.84,1.73A3.64,3.64,0,0,0,90,114Z" transform="translate(0)"/><path class="cls-7" d="M98.31,105.1h3.11V117H98.31Z" transform="translate(0)"/><path class="cls-7" d="M113,104.4V117h-3v-1.19a3.1,3.1,0,0,1-1.16,1,3.53,3.53,0,0,1-1.56.33,4.2,4.2,0,0,1-2.24-.59,4,4,0,0,1-1.5-1.67,5.54,5.54,0,0,1-.54-2.49,5.4,5.4,0,0,1,.53-2.45,3.89,3.89,0,0,1,1.48-1.63,4.17,4.17,0,0,1,2.21-.58,3.62,3.62,0,0,1,1.59.34,3.37,3.37,0,0,1,1.2,1V104.4Zm-3.57,9.72a2.81,2.81,0,0,0,0-3.32,1.94,1.94,0,0,0-2.86,0,2.76,2.76,0,0,0,0,3.32,1.81,1.81,0,0,0,1.44.64A1.79,1.79,0,0,0,109.45,114.12Z" transform="translate(0)"/><path class="cls-7" d="M122.52,108.57a3.06,3.06,0,0,1,1.07,2.46v6h-3v-1a3.3,3.3,0,0,1-2.77,1.17,3.23,3.23,0,0,1-2.3-.79,2.73,2.73,0,0,1-.84-2.08,2.47,2.47,0,0,1,.91-2,4.15,4.15,0,0,1,2.61-.75h2.4v-.1a1.23,1.23,0,0,0-.45-1,2.06,2.06,0,0,0-1.3-.36,5.27,5.27,0,0,0-1.3.19,7.79,7.79,0,0,0-1.45.54l-.83-2a11.94,11.94,0,0,1,2.15-.76,9.14,9.14,0,0,1,2.13-.25A4.5,4.5,0,0,1,122.52,108.57ZM120,114.76a1.44,1.44,0,0,0,.65-.86v-.8h-1.8q-1.28,0-1.28,1a.94.94,0,0,0,.33.76,1.37,1.37,0,0,0,.91.28A2.13,2.13,0,0,0,120,114.76Z" transform="translate(0)"/><path class="cls-7" d="M136.9,109a5.2,5.2,0,0,1,1.21,3.64c0,.24,0,.42,0,.54H131.7a2.2,2.2,0,0,0,.76,1.2,2.11,2.11,0,0,0,1.33.42,2.86,2.86,0,0,0,1.15-.24,3.23,3.23,0,0,0,1-.7l1.58,1.58a4.66,4.66,0,0,1-1.73,1.22,6,6,0,0,1-2.29.42,5.51,5.51,0,0,1-2.58-.58,4,4,0,0,1-1.69-1.63,5,5,0,0,1-.59-2.45,5.08,5.08,0,0,1,.59-2.49,4.12,4.12,0,0,1,1.68-1.67,5.22,5.22,0,0,1,2.52-.59A4.43,4.43,0,0,1,136.9,109Zm-1.73,2.57a1.77,1.77,0,0,0-.47-1.28,1.78,1.78,0,0,0-2.43,0,2.37,2.37,0,0,0-.64,1.29Z" transform="translate(0)"/><path class="cls-7" d="M142.24,105.1h3.35l3,8.62,3-8.62h3.2L150.1,117h-3.23Z" transform="translate(0)"/><path class="cls-7" d="M161.71,108.3a4.29,4.29,0,0,1,1.77,1.65,5.14,5.14,0,0,1,0,4.93,4.29,4.29,0,0,1-1.77,1.65,6.22,6.22,0,0,1-5.27,0,4.23,4.23,0,0,1-1.76-1.65,5.21,5.21,0,0,1,0-4.93,4.24,4.24,0,0,1,1.76-1.65,6.22,6.22,0,0,1,5.27,0Zm-4.06,2.49a2.43,2.43,0,0,0-.54,1.65,2.46,2.46,0,0,0,.54,1.67,1.79,1.79,0,0,0,1.43.63,1.81,1.81,0,0,0,1.45-.63,2.46,2.46,0,0,0,.54-1.67,2.41,2.41,0,0,0-.55-1.65,1.82,1.82,0,0,0-1.44-.63A1.79,1.79,0,0,0,157.64,110.79Z" transform="translate(0)"/><path class="cls-7" d="M165.74,104.4h3V117h-3Z" transform="translate(0)"/><path class="cls-7" d="M177.14,116.54A4.56,4.56,0,0,1,176,117a5.67,5.67,0,0,1-1.34.16,3.1,3.1,0,0,1-2.2-.78,2.8,2.8,0,0,1-.84-2.16v-3.94h-1.27v-2h1.27v-2.55h3v2.55H177v2h-2.38v3.47q0,1,.8,1a3,3,0,0,0,1.17-.31Z" transform="translate(0)"/><path class="cls-7" d="M185.69,108.57a3.06,3.06,0,0,1,1.07,2.46v6h-3v-1a3.3,3.3,0,0,1-2.77,1.17,3.23,3.23,0,0,1-2.3-.79,2.73,2.73,0,0,1-.84-2.08,2.47,2.47,0,0,1,.91-2,4.15,4.15,0,0,1,2.61-.75h2.4v-.1a1.23,1.23,0,0,0-.45-1A2.06,2.06,0,0,0,182,110a5.27,5.27,0,0,0-1.3.19,7.79,7.79,0,0,0-1.45.54l-.83-2a11.94,11.94,0,0,1,2.15-.76,9.14,9.14,0,0,1,2.13-.25A4.5,4.5,0,0,1,185.69,108.57Zm-2.55,6.19a1.44,1.44,0,0,0,.65-.86v-.8H182q-1.28,0-1.28,1a.94.94,0,0,0,.33.76,1.37,1.37,0,0,0,.91.28A2.13,2.13,0,0,0,183.14,114.76Z" transform="translate(0)"/><path class="cls-7" d="M76.06,124.24a3.24,3.24,0,0,0-4.12,1.32,3.23,3.23,0,0,0,2.81,4.85,3.29,3.29,0,0,0,1.3-.27,3.77,3.77,0,0,0,1.13-.74l.7.76a4.69,4.69,0,0,1-1.48,1,4.41,4.41,0,0,1-3.9-.22,4.24,4.24,0,0,1-2.15-3.73,4.13,4.13,0,0,1,.58-2.15,4.21,4.21,0,0,1,1.59-1.54,4.6,4.6,0,0,1,3.92-.23,4.19,4.19,0,0,1,1.42.93l-.68.83A3.47,3.47,0,0,0,76.06,124.24Z" transform="translate(0)"/><path class="cls-7" d="M82.9,125.44a2.93,2.93,0,0,1,1.15,1.13,3.55,3.55,0,0,1,0,3.33A2.92,2.92,0,0,1,82.9,131a3.71,3.71,0,0,1-3.38,0,2.93,2.93,0,0,1-1.15-1.13,3.57,3.57,0,0,1,0-3.34,2.93,2.93,0,0,1,1.15-1.13,3.71,3.71,0,0,1,3.38,0Zm-2.8.85a2,2,0,0,0-.76.8,2.44,2.44,0,0,0-.27,1.16,2.49,2.49,0,0,0,.27,1.18,1.93,1.93,0,0,0,.76.8,2.17,2.17,0,0,0,1.11.28,2.14,2.14,0,0,0,1.1-.28,1.94,1.94,0,0,0,.76-.8,2.49,2.49,0,0,0,.27-1.18,2.44,2.44,0,0,0-.27-1.16,2,2,0,0,0-.76-.8,2.11,2.11,0,0,0-1.1-.29A2.13,2.13,0,0,0,80.11,126.29Z" transform="translate(0)"/><path class="cls-7" d="M95.34,125.69a2.51,2.51,0,0,1,.62,1.8v3.92H94.84v-3.62a1.74,1.74,0,0,0-.44-1.26,1.6,1.6,0,0,0-1.21-.46,1.82,1.82,0,0,0-1.42.64,2.36,2.36,0,0,0-.52,1.57v3.13H90.13v-3.62a1.76,1.76,0,0,0-.43-1.26,1.59,1.59,0,0,0-1.21-.46,1.84,1.84,0,0,0-1.42.64,2.34,2.34,0,0,0-.52,1.57v3.13H85.43v-6.35h1.12v1.33A2.4,2.4,0,0,1,88.91,125a2.42,2.42,0,0,1,1.46.42,2.06,2.06,0,0,1,.79,1.18,2.41,2.41,0,0,1,2.47-1.6A2.25,2.25,0,0,1,95.34,125.69Z" transform="translate(0)"/><path class="cls-7" d="M102.47,125.44a2.8,2.8,0,0,1,1.08,1.14,3.86,3.86,0,0,1,0,3.34,2.74,2.74,0,0,1-1.07,1.13,3.07,3.07,0,0,1-1.58.4,2.9,2.9,0,0,1-1.42-.34,2.41,2.41,0,0,1-1-1v1.26H97.42v-8.9h1.12v3.82a2.42,2.42,0,0,1,1-1,2.84,2.84,0,0,1,1.4-.34A3.07,3.07,0,0,1,102.47,125.44Zm-.7,4.75a2,2,0,0,0,.76-.8,2.47,2.47,0,0,0,.27-1.16,2.4,2.4,0,0,0-.28-1.15,2,2,0,0,0-.76-.8,2.09,2.09,0,0,0-1.09-.29,2.12,2.12,0,0,0-1.1.29,2,2,0,0,0-.76.8,2.58,2.58,0,0,0,0,2.32,2,2,0,0,0,.76.8,2.24,2.24,0,0,0,2.2,0Z" transform="translate(0)"/><path class="cls-7" d="M109.22,125.44a2.93,2.93,0,0,1,1.15,1.13,3.55,3.55,0,0,1,0,3.33,2.92,2.92,0,0,1-1.15,1.14,3.71,3.71,0,0,1-3.38,0,2.93,2.93,0,0,1-1.15-1.13,3.57,3.57,0,0,1,0-3.34,2.93,2.93,0,0,1,1.15-1.13,3.71,3.71,0,0,1,3.38,0Zm-2.8.85a2,2,0,0,0-.76.8,2.44,2.44,0,0,0-.27,1.16,2.49,2.49,0,0,0,.27,1.18,1.93,1.93,0,0,0,.76.8,2.17,2.17,0,0,0,1.11.28,2.14,2.14,0,0,0,1.1-.28,1.94,1.94,0,0,0,.76-.8,2.49,2.49,0,0,0,.27-1.18,2.44,2.44,0,0,0-.27-1.16,2,2,0,0,0-.76-.8,2.11,2.11,0,0,0-1.1-.29A2.13,2.13,0,0,0,106.42,126.29Z" transform="translate(0)"/><path class="cls-7" d="M112.8,122.74a.77.77,0,0,1,0,1,.71.71,0,0,1-1,0,.77.77,0,0,1,0-1,.71.71,0,0,1,1,0Zm-1.05,2.33h1.12v6.35h-1.12Z" transform="translate(0)"/><path class="cls-7" d="M118.76,125.44a2.93,2.93,0,0,1,1.15,1.13,3.55,3.55,0,0,1,0,3.33,2.92,2.92,0,0,1-1.15,1.14,3.71,3.71,0,0,1-3.38,0,2.93,2.93,0,0,1-1.15-1.13,3.57,3.57,0,0,1,0-3.34,2.93,2.93,0,0,1,1.15-1.13,3.71,3.71,0,0,1,3.38,0Zm-2.8.85a2,2,0,0,0-.76.8,2.44,2.44,0,0,0-.27,1.16,2.49,2.49,0,0,0,.27,1.18,1.93,1.93,0,0,0,.76.8,2.17,2.17,0,0,0,1.11.28,2.14,2.14,0,0,0,1.1-.28,1.94,1.94,0,0,0,.76-.8,2.49,2.49,0,0,0,.27-1.18,2.44,2.44,0,0,0-.27-1.16,2,2,0,0,0-.76-.8,2.11,2.11,0,0,0-1.1-.29A2.13,2.13,0,0,0,116,126.29Z" transform="translate(0)"/><path class="cls-7" d="M123.88,126.09a3.12,3.12,0,0,0-.91-.14,1.55,1.55,0,0,0-.81.19.62.62,0,0,0-.31.57.63.63,0,0,0,.34.58,5,5,0,0,0,1,.4,8.25,8.25,0,0,1,1.08.38,1.91,1.91,0,0,1,.71.56,1.54,1.54,0,0,1,.29,1,1.56,1.56,0,0,1-.68,1.37,2.9,2.9,0,0,1-1.69.47,4.2,4.2,0,0,1-1.37-.23,3.11,3.11,0,0,1-1.12-.65l.42-.82a3,3,0,0,0,1,.58,3.24,3.24,0,0,0,1.13.22,1.69,1.69,0,0,0,.89-.2.68.68,0,0,0,.34-.62.71.71,0,0,0-.35-.65,4.82,4.82,0,0,0-1.07-.43,7.09,7.09,0,0,1-1-.37,1.85,1.85,0,0,1-.68-.55,1.48,1.48,0,0,1-.28-.94,1.51,1.51,0,0,1,.65-1.33,2.8,2.8,0,0,1,1.62-.44,4.07,4.07,0,0,1,1.13.16,3.43,3.43,0,0,1,1,.44l-.41.85A3.83,3.83,0,0,0,123.88,126.09Z" transform="translate(0)"/><path class="cls-7" d="M130.47,129.8a2.36,2.36,0,0,0,1.77.65,2.33,2.33,0,0,0,1.75-.65,2.5,2.5,0,0,0,.64-1.82v-5h1.15v5a3.47,3.47,0,0,1-.94,2.58,3.52,3.52,0,0,1-2.6.94,3.56,3.56,0,0,1-2.62-.94,3.46,3.46,0,0,1-.95-2.58v-5h1.15v5A2.48,2.48,0,0,0,130.47,129.8Z" transform="translate(0)"/><path class="cls-7" d="M139.3,125.4a2.63,2.63,0,0,1,1.37-.37v1.08a2,2,0,0,0-2.26,2v3.35h-1.12v-6.35h1.12v1.37A2.3,2.3,0,0,1,139.3,125.4Z" transform="translate(0)"/><path class="cls-7" d="M146.39,125.44a2.8,2.8,0,0,1,1.08,1.14,3.86,3.86,0,0,1,0,3.34,2.74,2.74,0,0,1-1.07,1.13,3.07,3.07,0,0,1-1.58.4,2.9,2.9,0,0,1-1.42-.34,2.41,2.41,0,0,1-1-1v1.26h-1.12v-8.9h1.12v3.82a2.42,2.42,0,0,1,1-1,2.84,2.84,0,0,1,1.4-.34A3.07,3.07,0,0,1,146.39,125.44Zm-.7,4.75a2,2,0,0,0,.76-.8,2.47,2.47,0,0,0,.27-1.16,2.4,2.4,0,0,0-.28-1.15,2,2,0,0,0-.76-.8,2.09,2.09,0,0,0-1.09-.29,2.12,2.12,0,0,0-1.1.29,2,2,0,0,0-.76.8,2.58,2.58,0,0,0,0,2.32,2,2,0,0,0,.76.8,2.24,2.24,0,0,0,2.2,0Z" transform="translate(0)"/><path class="cls-7" d="M152.69,131.41v-.89a2.6,2.6,0,0,1-2.22.94,2.53,2.53,0,0,1-1.16-.25,1.85,1.85,0,0,1-.77-.7,1.88,1.88,0,0,1-.27-1,1.63,1.63,0,0,1,.63-1.35,2.82,2.82,0,0,1,1.76-.51h2v-.3a1.31,1.31,0,0,0-.41-1,1.77,1.77,0,0,0-1.21-.37,3.45,3.45,0,0,0-2,.68l-.47-.77a5.8,5.8,0,0,1,1.27-.64,4.29,4.29,0,0,1,1.39-.2,2.66,2.66,0,0,1,1.84.58,2.11,2.11,0,0,1,.66,1.63v4.18Zm-.67-1.25a1.49,1.49,0,0,0,.65-1v-.64h-1.86a2.17,2.17,0,0,0-1.12.23.79.79,0,0,0-.37.72.94.94,0,0,0,.37.78,1.58,1.58,0,0,0,1,.29A2.27,2.27,0,0,0,152,130.16Z" transform="translate(0)"/><path class="cls-7" d="M160.46,125.68a2.48,2.48,0,0,1,.64,1.81v3.92H160v-3.62a1.56,1.56,0,0,0-1.69-1.7,1.92,1.92,0,0,0-1.39.55,2.15,2.15,0,0,0-.61,1.39v3.4h-1.12v-6.35h1.12v1.34a2.45,2.45,0,0,1,2.41-1.38A2.33,2.33,0,0,1,160.46,125.68Z" transform="translate(0)"/><path class="cls-7" d="M166.82,125.44a2.93,2.93,0,0,1,1.15,1.13,3.55,3.55,0,0,1,0,3.33,2.92,2.92,0,0,1-1.15,1.14,3.71,3.71,0,0,1-3.38,0,2.93,2.93,0,0,1-1.15-1.13,3.57,3.57,0,0,1,0-3.34,2.93,2.93,0,0,1,1.15-1.13,3.71,3.71,0,0,1,3.38,0Zm-2.8.85a2,2,0,0,0-.76.8,2.44,2.44,0,0,0-.27,1.16,2.49,2.49,0,0,0,.27,1.18,1.93,1.93,0,0,0,.76.8,2.17,2.17,0,0,0,1.11.28,2.14,2.14,0,0,0,1.1-.28,1.94,1.94,0,0,0,.76-.8,2.49,2.49,0,0,0,.27-1.18,2.44,2.44,0,0,0-.27-1.16,2,2,0,0,0-.76-.8,2.11,2.11,0,0,0-1.1-.29A2.13,2.13,0,0,0,164,126.29Z" transform="translate(0)"/><path class="cls-7" d="M171.94,126.09a3.12,3.12,0,0,0-.91-.14,1.55,1.55,0,0,0-.81.19.62.62,0,0,0-.31.57.63.63,0,0,0,.34.58,5,5,0,0,0,1,.4,8.25,8.25,0,0,1,1.08.38,1.91,1.91,0,0,1,.71.56,1.54,1.54,0,0,1,.29,1,1.56,1.56,0,0,1-.68,1.37,2.9,2.9,0,0,1-1.69.47,4.2,4.2,0,0,1-1.37-.23,3.11,3.11,0,0,1-1.12-.65l.42-.82a3,3,0,0,0,1,.58,3.24,3.24,0,0,0,1.13.22,1.69,1.69,0,0,0,.89-.2.68.68,0,0,0,.34-.62.71.71,0,0,0-.35-.65,4.82,4.82,0,0,0-1.07-.43,7.09,7.09,0,0,1-1-.37,1.85,1.85,0,0,1-.68-.55,1.48,1.48,0,0,1-.28-.94,1.51,1.51,0,0,1,.65-1.33,2.8,2.8,0,0,1,1.62-.44,4.07,4.07,0,0,1,1.13.16,3.43,3.43,0,0,1,1,.44l-.41.85A3.83,3.83,0,0,0,171.94,126.09Z" transform="translate(0)"/><path class="cls-7" d="M182.72,122.51v8.9h-1.12v-1.26a2.52,2.52,0,0,1-1,1,2.81,2.81,0,0,1-1.41.34,3,3,0,0,1-1.59-.41,2.84,2.84,0,0,1-1.07-1.15,3.6,3.6,0,0,1-.38-1.69,3.49,3.49,0,0,1,.38-1.66,2.82,2.82,0,0,1,1.07-1.13,3,3,0,0,1,1.58-.41,2.92,2.92,0,0,1,1.43.34,2.39,2.39,0,0,1,1,1v-3.82Zm-2.15,7.72a2,2,0,0,0,.76-.8,2.43,2.43,0,0,0,.28-1.16,2.46,2.46,0,0,0-.28-1.18,2,2,0,0,0-.76-.8,2.13,2.13,0,0,0-1.11-.29,2.1,2.1,0,0,0-1.11.29,2.07,2.07,0,0,0-.76.81,2.59,2.59,0,0,0,0,2.33,2,2,0,0,0,.76.8,2.28,2.28,0,0,0,2.22,0Z" transform="translate(0)"/><path class="cls-7" d="M189.14,125.9a3.57,3.57,0,0,1,.76,2.42c0,.16,0,.28,0,.36h-5a2.16,2.16,0,0,0,.71,1.36,2.11,2.11,0,0,0,1.43.5,2.69,2.69,0,0,0,1-.2,2.52,2.52,0,0,0,.85-.58l.61.64a3.2,3.2,0,0,1-1.13.78,3.75,3.75,0,0,1-1.46.28,3.37,3.37,0,0,1-1.66-.4,2.81,2.81,0,0,1-1.13-1.13,3.65,3.65,0,0,1,0-3.33,2.92,2.92,0,0,1,1.12-1.14,3.23,3.23,0,0,1,1.64-.41A2.8,2.8,0,0,1,189.14,125.9Zm-.25,1.91a1.84,1.84,0,0,0-2-1.86,2,2,0,0,0-1.4.5,2.11,2.11,0,0,0-.67,1.36Z" transform="translate(0)"/><path class="cls-7" d="M198.44,124.24a3.24,3.24,0,0,0-4.12,1.32,3.23,3.23,0,0,0,2.81,4.85,3.29,3.29,0,0,0,1.3-.27,3.77,3.77,0,0,0,1.13-.74l.7.76a4.69,4.69,0,0,1-1.48,1,4.41,4.41,0,0,1-3.9-.22,4.24,4.24,0,0,1-2.15-3.73,4.13,4.13,0,0,1,.58-2.15,4.21,4.21,0,0,1,1.59-1.54,4.6,4.6,0,0,1,3.92-.23,4.19,4.19,0,0,1,1.42.93l-.68.83A3.47,3.47,0,0,0,198.44,124.24Z" transform="translate(0)"/><path class="cls-7" d="M205.29,125.44a2.93,2.93,0,0,1,1.15,1.13,3.55,3.55,0,0,1,0,3.33,2.92,2.92,0,0,1-1.15,1.14,3.71,3.71,0,0,1-3.38,0,2.93,2.93,0,0,1-1.15-1.13,3.57,3.57,0,0,1,0-3.34,2.93,2.93,0,0,1,1.15-1.13,3.71,3.71,0,0,1,3.38,0Zm-2.8.85a2,2,0,0,0-.76.8,2.44,2.44,0,0,0-.27,1.16,2.49,2.49,0,0,0,.27,1.18,1.93,1.93,0,0,0,.76.8,2.17,2.17,0,0,0,1.11.28,2.14,2.14,0,0,0,1.1-.28,1.94,1.94,0,0,0,.76-.8,2.49,2.49,0,0,0,.27-1.18,2.44,2.44,0,0,0-.27-1.16,2,2,0,0,0-.76-.8,2.11,2.11,0,0,0-1.1-.29A2.13,2.13,0,0,0,202.49,126.29Z" transform="translate(0)"/><path class="cls-7" d="M208.87,122.74a.77.77,0,0,1,0,1,.71.71,0,0,1-1,0,.77.77,0,0,1,0-1,.71.71,0,0,1,1,0Zm-1.05,2.33h1.12v6.35h-1.12Z" transform="translate(0)"/><path class="cls-7" d="M220.42,125.69a2.51,2.51,0,0,1,.62,1.8v3.92h-1.13v-3.62a1.74,1.74,0,0,0-.44-1.26,1.6,1.6,0,0,0-1.21-.46,1.82,1.82,0,0,0-1.42.64,2.36,2.36,0,0,0-.52,1.57v3.13h-1.13v-3.62a1.76,1.76,0,0,0-.43-1.26,1.59,1.59,0,0,0-1.21-.46,1.84,1.84,0,0,0-1.42.64,2.34,2.34,0,0,0-.52,1.57v3.13H210.5v-6.35h1.12v1.33A2.4,2.4,0,0,1,214,125a2.42,2.42,0,0,1,1.46.42,2.06,2.06,0,0,1,.79,1.18,2.41,2.41,0,0,1,2.47-1.6A2.25,2.25,0,0,1,220.42,125.69Z" transform="translate(0)"/><path class="cls-7" d="M227.54,125.44a2.8,2.8,0,0,1,1.08,1.14,3.86,3.86,0,0,1,0,3.34,2.74,2.74,0,0,1-1.07,1.13,3.07,3.07,0,0,1-1.58.4,2.9,2.9,0,0,1-1.42-.34,2.41,2.41,0,0,1-1-1v1.26h-1.12v-8.9h1.12v3.82a2.42,2.42,0,0,1,1-1A2.84,2.84,0,0,1,226,125,3.07,3.07,0,0,1,227.54,125.44Zm-.7,4.75a2,2,0,0,0,.76-.8,2.47,2.47,0,0,0,.27-1.16,2.4,2.4,0,0,0-.28-1.15,2,2,0,0,0-.76-.8,2.09,2.09,0,0,0-1.09-.29,2.12,2.12,0,0,0-1.1.29,2,2,0,0,0-.76.8,2.58,2.58,0,0,0,0,2.32,2,2,0,0,0,.76.8,2.24,2.24,0,0,0,2.2,0Z" transform="translate(0)"/><path class="cls-7" d="M232,125.4a2.63,2.63,0,0,1,1.37-.37v1.08a2,2,0,0,0-2.26,2v3.35H230v-6.35h1.12v1.37A2.3,2.3,0,0,1,232,125.4Z" transform="translate(0)"/><path class="cls-7" d="M237.55,131.41v-.89a2.6,2.6,0,0,1-2.22.94,2.53,2.53,0,0,1-1.16-.25,1.85,1.85,0,0,1-.77-.7,1.88,1.88,0,0,1-.27-1,1.63,1.63,0,0,1,.63-1.35,2.82,2.82,0,0,1,1.76-.51h2v-.3a1.31,1.31,0,0,0-.41-1,1.77,1.77,0,0,0-1.21-.37,3.45,3.45,0,0,0-2,.68l-.47-.77a5.8,5.8,0,0,1,1.27-.64,4.29,4.29,0,0,1,1.39-.2,2.66,2.66,0,0,1,1.84.58,2.11,2.11,0,0,1,.66,1.63v4.18Zm-.67-1.25a1.49,1.49,0,0,0,.65-1v-.64h-1.86a2.17,2.17,0,0,0-1.12.23.79.79,0,0,0-.37.72.94.94,0,0,0,.37.78,1.58,1.58,0,0,0,1,.29A2.27,2.27,0,0,0,236.88,130.16Z" transform="translate(0)"/><path class="cls-13" d="M72.32,38.5h1.77l1.58,4.56,1.58-4.56h1.69l-2.47,6.31H74.76Z" transform="translate(0)"/><path class="cls-13" d="M83.67,44.81l-.43-1.12H80.52l-.44,1.12H78.38l2.71-6.31h1.69l2.65,6.31ZM81,42.43h1.75l-.86-2.25Zm1.17-5.92,1.32.5-1.3,1L81.1,38Z" transform="translate(0)"/><path class="cls-13" d="M92.46,38.9A2.9,2.9,0,0,1,93.65,40a3.4,3.4,0,0,1,0,3.29,2.9,2.9,0,0,1-1.21,1.12,3.89,3.89,0,0,1-1.79.4H88V38.5h2.72A3.74,3.74,0,0,1,92.46,38.9Zm-.86,4.36a1.53,1.53,0,0,0,.58-.64,2.09,2.09,0,0,0,.21-.95,2,2,0,0,0-.22-1,1.61,1.61,0,0,0-.61-.64,1.69,1.69,0,0,0-.88-.23h-1v3.64h1.12A1.59,1.59,0,0,0,91.6,43.25Z" transform="translate(0)"/><path class="cls-13" d="M94.89,38.5h5v1.31H96.54V41h3v1.3h-3V43.5H100v1.31H94.89Z" transform="translate(0)"/><path class="cls-13" d="M106.8,40a1.75,1.75,0,0,0-.84-.23,1.64,1.64,0,0,0-.87.24,1.69,1.69,0,0,0-.62.66,2,2,0,0,0,0,1.86,1.69,1.69,0,0,0,.62.66,1.64,1.64,0,0,0,.87.24,1.91,1.91,0,0,0,.81-.2,2.56,2.56,0,0,0,.76-.54l1,1a3.85,3.85,0,0,1-1.22.86,3.38,3.38,0,0,1-1.4.32,3.35,3.35,0,0,1-1.69-.43A3.16,3.16,0,0,1,103,43.32a3.28,3.28,0,0,1-.43-1.67,3.15,3.15,0,0,1,1.65-2.82,3.59,3.59,0,0,1,3.11-.13,3.45,3.45,0,0,1,1.16.8l-1,1.15A2.37,2.37,0,0,0,106.8,40Z" transform="translate(0)"/><path class="cls-13" d="M113.83,38.83A3.18,3.18,0,0,1,115.05,40a3.14,3.14,0,0,1,.45,1.66,3.19,3.19,0,0,1-1.67,2.85,3.74,3.74,0,0,1-3.48,0,3.16,3.16,0,0,1-1.22-1.18,3.23,3.23,0,0,1-.45-1.68,3.13,3.13,0,0,1,1.67-2.82,3.79,3.79,0,0,1,3.48,0ZM111.24,40a1.75,1.75,0,0,0-.63.67,2,2,0,0,0,0,1.89,1.82,1.82,0,0,0,.63.67,1.6,1.6,0,0,0,.86.25,1.57,1.57,0,0,0,.86-.25,1.73,1.73,0,0,0,.62-.67,2.1,2.1,0,0,0,0-1.89A1.71,1.71,0,0,0,113,40a1.6,1.6,0,0,0-.86-.24A1.64,1.64,0,0,0,111.24,40Z" transform="translate(0)"/><path class="cls-13" d="M116.32,38.5h1.79l1.83,3.69,1.82-3.69h1.79v6.31h-1.46v-4l-1.61,3.37h-1.06l-1.62-3.37v4h-1.47Z" transform="translate(0)"/><path class="cls-13" d="M129,38.69a1.82,1.82,0,0,1,.81.55,1.32,1.32,0,0,1,.29.85,1.35,1.35,0,0,1-.29.86,1.46,1.46,0,0,1-.8.5A1.55,1.55,0,0,1,130,42a1.62,1.62,0,0,1,.35,1,1.52,1.52,0,0,1-.3.93,1.85,1.85,0,0,1-.85.61,3.57,3.57,0,0,1-1.29.21h-3.11V38.5h3A3.59,3.59,0,0,1,129,38.69Zm-.79,2.15a.57.57,0,0,0,.2-.46.54.54,0,0,0-.2-.45.81.81,0,0,0-.54-.15h-1.26V41h1.26A.81.81,0,0,0,128.22,40.85Zm.14,2.51a.58.58,0,0,0,.25-.5.55.55,0,0,0-.25-.47,1.14,1.14,0,0,0-.68-.17h-1.26v1.32h1.26A1.16,1.16,0,0,0,128.36,43.35Z" transform="translate(0)"/><path class="cls-13" d="M136,38.83A3.18,3.18,0,0,1,137.19,40a3.14,3.14,0,0,1,.45,1.66A3.19,3.19,0,0,1,136,44.5a3.74,3.74,0,0,1-3.48,0,3.16,3.16,0,0,1-1.22-1.18,3.23,3.23,0,0,1-.45-1.68,3.13,3.13,0,0,1,1.67-2.82,3.79,3.79,0,0,1,3.48,0ZM133.37,40a1.75,1.75,0,0,0-.63.67,2,2,0,0,0,0,1.89,1.82,1.82,0,0,0,.63.67,1.6,1.6,0,0,0,.86.25,1.57,1.57,0,0,0,.86-.25,1.73,1.73,0,0,0,.62-.67,2.1,2.1,0,0,0,0-1.89,1.71,1.71,0,0,0-.62-.67,1.6,1.6,0,0,0-.86-.24A1.64,1.64,0,0,0,133.37,40Z" transform="translate(0)"/><path class="cls-13" d="M138.45,38.5h1.65v6.31h-1.65Z" transform="translate(0)"/><path class="cls-13" d="M146.07,38.83A3.18,3.18,0,0,1,147.29,40a3.14,3.14,0,0,1,.45,1.66,3.19,3.19,0,0,1-1.67,2.85,3.74,3.74,0,0,1-3.48,0,3.16,3.16,0,0,1-1.22-1.18,3.23,3.23,0,0,1-.45-1.68,3.13,3.13,0,0,1,1.67-2.82,3.79,3.79,0,0,1,3.48,0ZM143.48,40a1.75,1.75,0,0,0-.63.67,2,2,0,0,0,0,1.89,1.82,1.82,0,0,0,.63.67,1.6,1.6,0,0,0,.86.25,1.57,1.57,0,0,0,.86-.25,1.73,1.73,0,0,0,.62-.67,2.1,2.1,0,0,0,0-1.89,1.71,1.71,0,0,0-.62-.67,1.6,1.6,0,0,0-.86-.24A1.64,1.64,0,0,0,143.48,40Z" transform="translate(0)"/></g></g></svg>