<svg xmlns="http://www.w3.org/2000/svg" viewBox="0 0 329.95 100.58"><defs><style>.cls-1{fill:#248b4d;}.cls-1,.cls-2{fill-rule:evenodd;}.cls-2,.cls-3{fill:#231f20;}</style></defs><title>Asset 1</title><g id="Layer_2" data-name="Layer 2"><g id="Foreground"><path class="cls-1" d="M26.05,15.78a9.84,9.84,0,1,0,0,19.68H41.15a9.26,9.26,0,0,0,7.22-4.12L63.06,6.18A13.88,13.88,0,0,1,73.89,0H97a25.93,25.93,0,0,1,26.08,25.75A25.89,25.89,0,0,1,97,51.51H88.18A9.28,9.28,0,0,0,81,55.62l-4.59,7.84H57.48l12.75-21.8a13.9,13.9,0,0,1,10.83-6.18H97A9.84,9.84,0,1,0,97,15.8H78.91A9.24,9.24,0,0,0,71.7,19.9L56.88,45.33A13.9,13.9,0,0,1,46.06,51.5h-20A25.93,25.93,0,0,1,0,25.74,25.88,25.88,0,0,1,26,0H53.31L44.1,15.79Z"/><path class="cls-2" d="M14.61,99.55l-.71-3.07A19.41,19.41,0,0,1,8,97.41c-2.51,0-4.5-1.58-4.5-5.12v-5c0-3.66,2-5.12,4.5-5.12a19.41,19.41,0,0,1,5.86.93l.71-3a21.79,21.79,0,0,0-6.61-1C3.54,79.08,0,82,0,87v5.65c0,5,3.54,7.91,8,7.91A21.59,21.59,0,0,0,14.61,99.55Z"/><path class="cls-2" d="M32.22,92.64V87.08a7.72,7.72,0,0,0-8-8,7.68,7.68,0,0,0-8,8v5.55c0,5,3.6,7.94,8,7.94A7.68,7.68,0,0,0,32.22,92.64Zm-3.54-.34c0,3.66-2,5.15-4.5,5.15s-4.5-1.49-4.5-5.15V87.42c0-3.57,2-5.18,4.5-5.18s4.5,1.61,4.5,5.18Z"/><polygon class="cls-2" points="56.79 100.3 53.94 79.36 49.47 79.36 46.43 89.47 45.38 94.03 44.32 89.47 41.28 79.36 36.84 79.36 34.08 100.3 37.56 100.3 39.08 88.17 39.51 83.58 40.57 88.17 43.3 97.22 47.45 97.22 50.18 88.17 51.23 83.58 51.7 88.17 53.28 100.3 56.79 100.3"/><path class="cls-2" d="M74.28,94.09a5,5,0,0,0-3.13-4.81,4.33,4.33,0,0,0,2.39-4c0-3.29-2.45-5.89-6.7-5.89H60v20.94h7.32C71.8,100.29,74.28,97.54,74.28,94.09ZM70,85.25c0,1.68-.65,2.82-2.89,2.82H63.57V82.49h3.26C69.13,82.49,70,83.61,70,85.25Zm.74,8.84c0,1.8-1,3.07-3.38,3.07H63.57V91h4.06C70,91,70.74,92.26,70.74,94.09Z"/><path class="cls-2" d="M92.48,92.64V87.08a8,8,0,0,0-16.07,0v5.55c0,5,3.6,7.94,8,7.94A7.68,7.68,0,0,0,92.48,92.64Zm-3.54-.34c0,3.66-2,5.15-4.5,5.15S80,96,80,92.29V87.42c0-3.57,2-5.18,4.5-5.18s4.5,1.61,4.5,5.18Z"/><rect class="cls-3" x="96.05" y="79.36" width="3.54" height="20.94"/><path class="cls-2" d="M119.21,92.64V87.08a8,8,0,0,0-16.07,0v5.55c0,5,3.6,7.94,8,7.94A7.68,7.68,0,0,0,119.21,92.64Zm-3.54-.34c0,3.66-2,5.15-4.5,5.15s-4.5-1.49-4.5-5.15V87.42c0-3.57,2-5.18,4.5-5.18s4.5,1.61,4.5,5.18Z"/><path class="cls-2" d="M135.34,94.46c0-3.88-2.76-5.27-5.15-6.23-.59-.25-1.15-.43-1.71-.68-1.46-.62-2.6-1.3-2.6-2.85,0-1.39,1.05-2.48,3.19-2.48a15.58,15.58,0,0,1,5,1l.93-3a17.77,17.77,0,0,0-5.93-1.18c-3.78,0-6.73,2.17-6.73,5.67,0,4.34,3.47,5.18,6.64,6.58,1.43.65,2.79,1.43,2.79,3.16s-1.52,2.92-3.41,2.92a20.55,20.55,0,0,1-5.83-1.15l-.68,3.07a19.83,19.83,0,0,0,6.51,1.21C132,100.54,135.34,98.53,135.34,94.46Z"/><path class="cls-2" d="M162.31,93.29v-7c0-4.28-3.47-7.23-7.63-7.23a20.52,20.52,0,0,0-7.26,1.71v19.51h7.26C159.43,100.29,162.31,97.54,162.31,93.29Zm-3.57-.34c0,2.95-1.27,4.22-4.06,4.22H151V82.9a14,14,0,0,1,3.72-.68c2.36,0,4.06,1.61,4.06,4.47Z"/><path class="cls-2" d="M178,100.29V97.16h-5.89a3,3,0,0,1-3.26-3.07,3,3,0,0,1,3.26-3.1h5.46l.09-2.92H172.2c-2.23,0-3.23-1.3-3.23-2.82s.87-2.76,3.2-2.76H178V79.36h-5.79c-4.38,0-6.73,2.61-6.73,5.89a5,5,0,0,0,2.73,4.28,5.24,5.24,0,0,0-2.88,4.56c0,3.44,2.63,6.2,6.79,6.2Z"/><path class="cls-2" d="M204.08,85.75a6.06,6.06,0,0,0-6.27-6.39h-7.47v20.94h3.53V92.11h3.94A6,6,0,0,0,204.08,85.75Zm-3.54,0c0,2.11-.93,3.32-2.73,3.32h-3.94V82.49h3.94C199.61,82.49,200.54,83.67,200.54,85.75Z"/><path class="cls-2" d="M222.46,92.64V87.08a8,8,0,0,0-16.07,0v5.55c0,5,3.6,7.94,8,7.94A7.68,7.68,0,0,0,222.46,92.64Zm-3.54-.34c0,3.66-2,5.15-4.49,5.15s-4.5-1.49-4.5-5.15V87.42c0-3.57,2-5.18,4.5-5.18s4.49,1.61,4.49,5.18Z"/><path class="cls-2" d="M240,100.29l-4.44-9.06a6,6,0,0,0,4-5.74,6.18,6.18,0,0,0-6.54-6.14h-7.2v20.94h3.53V91.64h2.79l4.1,8.65Zm-4-14.79a2.83,2.83,0,0,1-3,3.1h-3.66V82.49h3.66A2.78,2.78,0,0,1,236.08,85.5Z"/><polygon class="cls-2" points="256.79 79.36 241.65 79.36 241.65 82.49 247.45 82.49 247.45 100.3 250.99 100.3 250.99 82.49 256.61 82.49 256.79 79.36"/><path class="cls-2" d="M274.56,93.29v-14H271V92.94c0,2.89-1.68,4.44-4,4.44S263,95.83,263,92.94V79.33h-3.53v14c0,4.31,3.41,7.26,7.59,7.26A7.24,7.24,0,0,0,274.56,93.29Z"/><path class="cls-2" d="M293,99.4V89.1h-5.83v2.39l2.38.22v5.36a19.36,19.36,0,0,1-3.53.34c-2.51,0-4.5-1.55-4.5-5.12v-5c0-3.47,2-5.12,4.5-5.12a20.94,20.94,0,0,1,5.92,1l.8-3A23.41,23.41,0,0,0,286,79.08c-4.46,0-8,2.95-8,7.91v5.65c0,5,3.53,7.91,8,7.91A24.15,24.15,0,0,0,293,99.4Z"/><path class="cls-2" d="M314.6,100.29l-7.41-20.94h-4.62l-7.41,20.94h3.57l2-6.08H309l2,6.08ZM308,91.39h-6.33L304.86,82Z"/><polygon class="cls-2" points="329.95 97.16 320.46 97.16 320.46 79.36 316.92 79.36 316.92 100.3 329.67 100.3 329.95 97.16"/></g></g></svg>