<?xml version="1.0" encoding="utf-8"?>
<!-- Generator: Adobe Illustrator 16.0.0, SVG Export Plug-In . SVG Version: 6.00 Build 0)  -->
<!DOCTYPE svg PUBLIC "-//W3C//DTD SVG 1.1//EN" "http://www.w3.org/Graphics/SVG/1.1/DTD/svg11.dtd" [
	<!ENTITY ns_extend "http://ns.adobe.com/Extensibility/1.0/">
	<!ENTITY ns_ai "http://ns.adobe.com/AdobeIllustrator/10.0/">
	<!ENTITY ns_graphs "http://ns.adobe.com/Graphs/1.0/">
	<!ENTITY ns_vars "http://ns.adobe.com/Variables/1.0/">
	<!ENTITY ns_imrep "http://ns.adobe.com/ImageReplacement/1.0/">
	<!ENTITY ns_sfw "http://ns.adobe.com/SaveForWeb/1.0/">
	<!ENTITY ns_custom "http://ns.adobe.com/GenericCustomNamespace/1.0/">
	<!ENTITY ns_adobe_xpath "http://ns.adobe.com/XPath/1.0/">
]>
<svg version="1.1" id="Layer_1" xmlns:x="&ns_extend;" xmlns:i="&ns_ai;" xmlns:graph="&ns_graphs;"
	 xmlns="http://www.w3.org/2000/svg" xmlns:xlink="http://www.w3.org/1999/xlink" x="0px" y="0px" width="348.624px"
	 height="349.541px" viewBox="128.408 223.775 348.624 349.541" enable-background="new 128.408 223.775 348.624 349.541"
	 xml:space="preserve">
<metadata>
	<sfw  xmlns="&ns_sfw;">
		<slices></slices>
		<sliceSourceBounds  y="231.088" x="142.123" width="326.754" height="320.394" bottomLeftOrigin="true"></sliceSourceBounds>
	</sfw>
</metadata>
<g>
	<g>
		<path fill="#E15555" d="M320.721,241.419c-36.492,2.98-77.2,20.208-102.207,46.814c-14.03,14.902-27.623,35.983-29.44,59.753
			c-1.89,25.079,6.542,42.307,18.173,54.593c16.428,17.301,38.6,25.224,72.765,27.695c12.358-20.936-0.363-36.637-11.267-52.848
			c-6.761-10.031-13.012-20.79-16.429-32.93c-10.322-36.419,17.955-69.567,53.72-69.349c30.677,0.218,55.465,22.244,55.465,53.72
			c0,20.936-11.122,38.455-19.918,51.103c-7.924,11.413-19.772,23.043-13.884,42.453c41.435-13.812,81.052-42.017,92.683-84.905
			C436.593,277.765,381.056,236.476,320.721,241.419z"/>
	</g>
	<g>
		<path fill="#E15555" d="M351.033,315.929c-3.344-21.153-25.879-39.835-51.976-36.419c-24.934,3.344-43.543,26.242-38.963,55.465
			c2.544,15.992,14.902,30.095,34.674,32.057c11.267-9.522-2.762-18.682-4.362-29.44c-1.745-12.067,1.309-22.971,14.684-23.407
			c13.23-0.437,17.591,12.357,15.629,24.279c-1.891,11.122-15.775,19.554-4.362,28.568
			C341.874,363.761,355.322,343.043,351.033,315.929z"/>
	</g>
</g>
<g>
	<path fill="#E15555" d="M167.629,508.201l-10.977-14.902h-5.525v14.902h-8.505v-41.362h16.792c3.053,0,5.598,0.146,7.706,0.509
		c2.035,0.291,3.708,0.945,4.943,1.891c1.236,0.944,2.108,2.253,2.69,3.998c0.509,1.744,0.799,3.998,0.799,6.905
		c0,2.254-0.145,4.217-0.509,5.743c-0.291,1.526-0.872,2.835-1.599,3.78c-0.727,1.018-1.745,1.744-2.98,2.253
		s-2.762,0.945-4.507,1.163l11.413,15.12H167.629z M159.488,486.394c1.309,0,2.472-0.073,3.417-0.146
		c0.945-0.072,1.672-0.363,2.253-0.8s1.018-1.09,1.236-1.89c0.218-0.873,0.363-2.035,0.363-3.489c0-1.526-0.145-2.763-0.363-3.635
		c-0.291-0.872-0.654-1.526-1.236-1.89c-0.582-0.437-1.308-0.654-2.253-0.728c-0.945-0.072-2.035-0.146-3.417-0.146h-8.36v12.722
		H159.488z"/>
	<polygon fill="#E15555" points="190.6,508.201 190.6,466.839 221.495,466.839 220.913,473.745 199.105,473.745 199.105,483.34 
		216.043,483.34 216.043,490.246 199.105,490.246 199.105,501.223 221.495,501.223 220.913,508.201 	"/>
	<path fill="#E15555" d="M231.89,508.201v-41.362h14.83c3.125,0,5.96,0.218,8.578,0.582c2.544,0.436,4.798,1.309,6.542,2.762
		c1.817,1.382,3.198,3.489,4.216,6.179c0.945,2.69,1.454,6.325,1.454,10.904c0,4.58-0.436,8.287-1.309,11.05
		c-0.872,2.762-2.181,4.87-3.925,6.324c-1.745,1.453-3.853,2.398-6.324,2.835c-2.472,0.436-5.379,0.654-8.65,0.654H231.89V508.201z
		 M246.719,501.223c2.253,0,4.216-0.146,5.743-0.437c1.599-0.29,2.835-0.872,3.78-1.89c0.945-0.945,1.599-2.398,2.036-4.289
		c0.436-1.89,0.582-4.361,0.582-7.487c0-3.271-0.291-5.815-0.945-7.633c-0.654-1.817-1.454-3.198-2.617-3.998
		c-1.09-0.872-2.399-1.381-3.925-1.526c-1.527-0.146-3.126-0.291-4.871-0.291h-6.179v27.551H246.719z"/>
	<polygon fill="#333333" points="280.448,508.201 280.448,466.839 288.881,466.839 288.881,501.223 309.671,501.223 
		309.017,508.201 	"/>
	<rect x="319.558" y="466.839" fill="#333333" width="8.505" height="41.362"/>
	<path fill="#333333" d="M370.224,490.246h-9.377l0.654-6.906h16.938v21.954c-0.872,0.509-1.963,1.018-3.198,1.453
		c-1.236,0.437-2.617,0.8-4.144,1.163c-1.454,0.291-3.054,0.582-4.652,0.728c-1.6,0.146-3.199,0.29-4.726,0.29
		c-3.271,0-6.179-0.29-8.65-0.799c-2.544-0.509-4.652-1.527-6.324-3.054s-2.98-3.78-3.853-6.615s-1.309-6.542-1.309-11.122
		c0-4.579,0.509-8.214,1.454-11.049c1.018-2.763,2.398-4.943,4.216-6.47s3.998-2.544,6.542-3.053c2.545-0.509,5.452-0.8,8.578-0.8
		c3.053,0,5.815,0.218,8.287,0.727c2.544,0.509,4.725,1.163,6.542,1.963l-2.107,6.615c-0.582-0.218-1.382-0.437-2.254-0.727
		c-0.872-0.291-1.89-0.582-2.98-0.8c-1.09-0.291-2.253-0.437-3.562-0.654c-1.236-0.146-2.545-0.219-3.78-0.219
		c-1.745,0-3.417,0.146-4.87,0.364c-1.527,0.218-2.835,0.799-3.926,1.744s-1.963,2.399-2.544,4.289
		c-0.654,1.89-0.945,4.507-0.945,7.924c0,3.125,0.218,5.67,0.654,7.633c0.437,1.962,1.091,3.416,2.108,4.507
		c0.944,1.018,2.253,1.744,3.853,2.107c1.599,0.364,3.562,0.582,5.961,0.582c1.309,0,2.689-0.146,4.07-0.363
		c1.382-0.219,2.544-0.509,3.417-0.8v-10.613H370.224z"/>
	<polygon fill="#333333" points="415.729,508.201 415.729,489.737 398.938,489.737 398.938,508.201 390.505,508.201 
		390.505,466.839 398.938,466.839 398.938,482.687 415.729,482.687 415.729,466.839 424.162,466.839 424.162,508.201 	"/>
	<polygon fill="#333333" points="447.351,508.201 447.351,473.745 434.63,473.745 435.284,466.839 469.377,466.839 468.723,473.745 
		455.856,473.745 455.856,508.201 	"/>
	<path fill="#333333" d="M191.763,533.789c-0.436-0.146-1.018-0.363-1.745-0.509c-0.727-0.218-1.526-0.363-2.471-0.582
		c-0.873-0.145-1.817-0.29-2.835-0.436c-1.018-0.146-1.963-0.146-2.908-0.146c-2.835,0-5.016,0.437-6.47,1.235
		c-1.454,0.8-2.181,2.326-2.181,4.507c0,1.019,0.072,1.817,0.145,2.326c0.146,0.51,0.364,1.019,0.8,1.309
		c0.436,0.364,1.018,0.582,1.817,0.8c0.799,0.218,1.89,0.437,3.344,0.728c1.817,0.363,3.562,0.727,5.379,1.018
		c1.817,0.29,3.489,0.727,4.943,1.381c1.454,0.581,2.69,1.381,3.635,2.472c0.945,1.09,1.454,2.544,1.454,4.361
		c0,1.89-0.291,3.344-0.945,4.507c-0.582,1.163-1.454,2.108-2.544,2.763c-1.09,0.654-2.398,1.163-3.925,1.381
		c-1.526,0.218-3.198,0.363-5.016,0.363c-1.09,0-2.326-0.072-3.562-0.146c-1.236-0.145-2.472-0.29-3.708-0.509
		c-1.163-0.218-2.326-0.509-3.417-0.727c-1.09-0.291-1.962-0.582-2.617-0.945c0.218-0.509,0.509-0.944,0.727-1.381
		c0.218-0.437,0.509-0.872,0.799-1.309c0.509,0.218,1.09,0.437,1.89,0.654c0.8,0.291,1.672,0.509,2.762,0.727
		c1.09,0.219,2.253,0.437,3.489,0.582c1.309,0.146,2.617,0.218,4.071,0.218c1.309,0,2.544,0,3.635-0.072
		c1.09-0.073,1.963-0.291,2.762-0.654c0.727-0.363,1.309-1.018,1.745-1.817s0.582-1.963,0.582-3.489
		c0-0.945-0.146-1.745-0.363-2.254c-0.218-0.581-0.582-1.018-1.09-1.309c-0.509-0.363-1.236-0.581-2.036-0.799
		c-0.872-0.219-1.962-0.437-3.198-0.654c-2.69-0.509-5.016-0.945-6.906-1.382c-1.89-0.363-3.417-0.944-4.58-1.526
		c-1.163-0.654-2.035-1.453-2.544-2.472c-0.509-1.018-0.8-2.471-0.8-4.216c0-1.381,0.291-2.617,0.873-3.707
		c0.582-1.091,1.381-1.963,2.471-2.617c1.018-0.727,2.254-1.235,3.635-1.526c1.381-0.363,2.835-0.509,4.362-0.509
		c1.09,0,2.253,0.072,3.417,0.146c1.163,0.072,2.326,0.218,3.417,0.363s2.108,0.363,3.053,0.581c0.945,0.219,1.745,0.509,2.398,0.8
		L191.763,533.789z"/>
	<path fill="#333333" d="M202.522,545.348c0-3.489,0.436-6.252,1.236-8.36c0.799-2.107,1.89-3.707,3.344-4.87
		c1.381-1.163,3.053-1.89,4.871-2.254c1.89-0.363,3.853-0.581,6.033-0.581s4.144,0.218,6.034,0.581
		c1.89,0.364,3.489,1.091,4.87,2.254c1.381,1.163,2.472,2.763,3.344,4.87c0.799,2.108,1.236,4.871,1.236,8.36
		c0,3.488-0.437,6.251-1.236,8.359c-0.8,2.107-1.89,3.707-3.344,4.87c-1.381,1.163-3.053,1.89-4.87,2.254
		c-1.89,0.363-3.853,0.581-6.034,0.581s-4.144-0.218-6.033-0.581c-1.89-0.364-3.489-1.091-4.871-2.254s-2.472-2.763-3.344-4.87
		C202.958,551.599,202.522,548.764,202.522,545.348 M218.005,532.044c-1.599,0-3.053,0.073-4.507,0.219
		c-1.454,0.146-2.689,0.654-3.78,1.454c-1.09,0.872-1.962,2.181-2.617,3.998c-0.654,1.816-1.018,4.361-1.018,7.633
		c0,2.181,0.145,4.07,0.436,5.597c0.291,1.526,0.727,2.763,1.236,3.78c0.509,0.945,1.163,1.744,1.89,2.253
		c0.727,0.51,1.526,0.945,2.398,1.163c0.873,0.219,1.817,0.364,2.835,0.437c1.018,0.072,2.035,0.072,3.053,0.072
		c1.018,0,2.036,0,3.053-0.072s1.963-0.218,2.835-0.437c0.873-0.218,1.672-0.654,2.472-1.163c0.727-0.581,1.381-1.308,1.89-2.253
		c0.509-0.945,0.945-2.254,1.235-3.78c0.291-1.526,0.437-3.416,0.437-5.597c0-3.271-0.364-5.889-1.018-7.633
		c-0.654-1.817-1.527-3.126-2.69-3.998c-1.09-0.8-2.399-1.309-3.78-1.454C220.986,532.117,219.532,532.044,218.005,532.044"/>
	<polygon fill="#333333" points="246.574,546.22 246.574,560.831 243.157,560.831 243.157,529.937 264.602,529.937 264.166,532.698 
		246.574,532.698 246.574,543.457 262.13,543.457 262.13,546.22 	"/>
	<polygon fill="#333333" points="278.268,560.831 278.268,532.698 267.364,532.698 267.8,529.937 293.242,529.937 292.806,532.698 
		281.757,532.698 281.757,560.831 	"/>
	<polygon fill="#333333" points="326.826,560.831 319.702,535.243 313.088,560.831 309.017,560.831 300.076,529.937 
		303.565,529.937 310.979,557.923 311.197,557.923 318.03,529.937 321.375,529.937 328.717,557.923 329.007,557.923 
		335.841,529.937 339.475,529.937 330.897,560.831 	"/>
	<path fill="#333333" d="M368.988,560.831l-3.926-9.668h-13.957l-3.853,9.668h-3.562l12.357-30.822h4.144l12.357,30.822H368.988z
		 M360.12,538.659l-1.817-5.815h-0.291l-1.817,5.815l-4.071,10.032h12.067L360.12,538.659z"/>
	<path fill="#333333" d="M402.427,560.831l-8.142-11.122h-9.886v11.122h-3.489v-30.822h12.503c2.253,0,4.144,0.146,5.742,0.363
		c1.527,0.219,2.763,0.728,3.708,1.382c0.944,0.727,1.599,1.672,1.963,2.98c0.363,1.309,0.581,2.98,0.581,5.088
		c0,1.672-0.146,3.126-0.363,4.289s-0.654,2.108-1.236,2.835c-0.581,0.728-1.308,1.309-2.181,1.672
		c-0.944,0.437-2.035,0.654-3.416,0.872l8.577,11.268h-4.361V560.831z M393.485,546.946c1.526,0,2.763-0.072,3.853-0.146
		c1.091-0.146,1.891-0.436,2.545-0.872s1.163-1.163,1.454-2.108c0.29-0.944,0.436-2.253,0.436-3.998c0-1.744-0.146-3.126-0.436-4.07
		c-0.291-0.945-0.8-1.672-1.454-2.108s-1.526-0.727-2.545-0.8c-1.09-0.072-2.326-0.146-3.853-0.146h-9.159v14.248H393.485
		L393.485,546.946z"/>
	<polygon fill="#333333" points="416.166,560.831 416.166,529.937 439.209,529.937 438.773,532.698 419.655,532.698 
		419.655,543.457 435.139,543.457 435.139,546.22 419.655,546.22 419.655,557.996 439.209,557.996 438.773,560.831 	"/>
</g>
</svg>
