<?xml version="1.0" encoding="utf-8"?>
<!-- Generator: Adobe Illustrator 16.0.0, SVG Export Plug-In . SVG Version: 6.00 Build 0)  -->
<!DOCTYPE svg PUBLIC "-//W3C//DTD SVG 1.1//EN" "http://www.w3.org/Graphics/SVG/1.1/DTD/svg11.dtd">
<svg version="1.1" id="Layer_1" xmlns="http://www.w3.org/2000/svg" xmlns:xlink="http://www.w3.org/1999/xlink" x="0px" y="0px"
	 width="335.207px" height="210.113px" viewBox="0 0 335.207 210.113" enable-background="new 0 0 335.207 210.113"
	 xml:space="preserve">
<g>
	<g>
		<path d="M200.458,75.915l-4.185-15.451l-4.11,15.451h-2.189l-4.26-17.031h1.604l3.798,15.499h0.047l4.162-15.499h1.92l4.26,15.499
			h0.051l3.744-15.499h1.533l-4.209,17.031H200.458z"/>
		<path d="M217.115,68.858c0-1.729-1.119-2.652-2.652-2.652c-1.289,0-2.555,0.706-3.574,1.897v7.812h-1.484V58.884h1.459v7.834
			c0.977-1.169,2.289-1.822,3.846-1.822c2.506,0,3.896,1.53,3.896,3.893v7.13h-1.483V68.86L217.115,68.858L217.115,68.858z"/>
		<path d="M223.787,75.915h-1.484v-9.489H220.6v-1.239h3.188v10.729H223.787L223.787,75.915z M222.935,60.002
			c0.705,0,1.291,0.584,1.291,1.289c0,0.707-0.586,1.291-1.291,1.291s-1.289-0.584-1.289-1.291
			C221.646,60.586,222.229,60.002,222.935,60.002z"/>
		<path d="M229.41,60.658v4.525h2.651v1.239h-2.651V73.7c0,0.997,0.705,1.045,1.532,1.045c0.681,0,1.119-0.072,1.119-0.072v1.241
			c0,0-0.778,0.102-1.656,0.102c-1.118,0-2.479-0.293-2.479-2.289v-7.302h-1.85v-1.239h1.85V60.66L229.41,60.658L229.41,60.658z"/>
		<path d="M234.983,71c0.192,2.215,1.681,3.896,3.916,3.896c1.461,0,2.679-0.685,3.334-1.853h1.729
			c-0.898,1.947-2.846,3.164-5.062,3.164c-3.09,0-5.447-2.356-5.447-5.645s2.357-5.67,5.426-5.67c2.822,0,5.4,1.972,5.4,6.104
			L234.983,71L234.983,71z M235.033,69.784h7.59c-0.168-1.948-1.627-3.578-3.746-3.578C236.735,66.206,235.298,67.74,235.033,69.784
			z"/>
		<path d="M252.604,67.253c-0.778-0.681-1.582-1.12-2.726-1.12c-1.338,0-2.045,0.707-2.045,1.512c0,0.605,0.293,1.217,1.412,1.652
			l1.508,0.608c1.949,0.778,2.701,1.727,2.701,3.235c0,1.312-1.119,3.063-3.771,3.063c-1.851,0-3.113-0.682-3.966-1.509l0.804-1.095
			c0.804,0.803,1.994,1.359,3.211,1.359c1.483,0,2.265-0.851,2.265-1.822c0-1.05-0.683-1.483-2.238-2.117l-1.021-0.414
			c-1.678-0.684-2.357-1.63-2.357-2.869c0-1.484,1.312-2.848,3.576-2.848c1.582,0,2.799,0.703,3.479,1.338L252.604,67.253z"/>
		<path d="M265.089,69.199v6.716h-1.48v-7.13c0-1.653-1.021-2.579-2.559-2.579c-1.266,0-2.406,0.706-3.43,1.897v7.812h-1.482V65.185
			h1.459v1.531c0.926-1.117,2.092-1.822,3.646-1.822c1.803,0,2.993,0.803,3.506,2.065c1.166-1.412,2.436-2.065,3.99-2.065
			c2.528,0,3.817,1.53,3.817,3.893v7.13h-1.483v-7.13c0-1.653-1.021-2.579-2.529-2.579c-1.289,0-2.457,0.731-3.504,1.948
			C265.067,68.494,265.089,68.858,265.089,69.199z"/>
		<path d="M277.75,75.915h-1.482v-9.489h-1.703v-1.239h3.188v10.729H277.75L277.75,75.915z M276.901,60.002
			c0.703,0,1.289,0.584,1.289,1.289c0,0.707-0.586,1.291-1.289,1.291c-0.707,0-1.291-0.584-1.291-1.291
			C275.61,60.586,276.194,60.002,276.901,60.002z"/>
		<path d="M283.375,60.658v4.525h2.651v1.239h-2.651V73.7c0,0.997,0.707,1.045,1.535,1.045c0.678,0,1.116-0.072,1.116-0.072v1.241
			c0,0-0.778,0.102-1.653,0.102c-1.119,0-2.48-0.293-2.48-2.289v-7.302h-1.852v-1.239h1.852V60.66L283.375,60.658L283.375,60.658z"
			/>
		<path d="M295.981,68.858c0-1.729-1.121-2.652-2.651-2.652c-1.289,0-2.556,0.706-3.576,1.897v7.812h-1.482V58.884h1.459v7.834
			c0.977-1.169,2.287-1.822,3.85-1.822c2.502,0,3.892,1.53,3.892,3.893v7.13h-1.484V68.86L295.981,68.858L295.981,68.858z"/>
	</g>
	<path d="M162.542,52.552c-0.408,0-0.737,0.331-0.737,0.739v111.008h-4.242L135.333,53.147c-0.07-0.348-0.371-0.597-0.727-0.597
		h-5.588c-0.354,0-0.656,0.249-0.727,0.597l-22.229,111.15h-4.242V53.291c0-0.408-0.332-0.739-0.74-0.739H50.794
		c-0.408,0-0.738,0.331-0.738,0.739v111.744c0,0.408,0.33,0.74,0.738,0.74h50.277c0.004,0,0.006,0.002,0.01,0.002h5.588
		c0.354,0,0.654-0.249,0.725-0.595l22.23-111.152H134l22.23,111.152c0.068,0.346,0.371,0.595,0.723,0.595h5.588
		c0.408,0,0.74-0.332,0.74-0.74V53.291C163.283,52.883,162.951,52.552,162.542,52.552z"/>
</g>
</svg>
