<svg xmlns="http://www.w3.org/2000/svg" viewBox="0 0 662.76 89.93"><defs><style>.cls-1{fill:none;stroke:#000;stroke-miterlimit:10;stroke-width:1.2px;}</style></defs><title>Asset 7</title><g id="Layer_2" data-name="Layer 2"><g id="Camada_1" data-name="Camada 1"><rect class="cls-1" x="321.07" y="67.42" width="24.57" height="4.57" rx="1.62" ry="1.62" transform="translate(-3.01 16.36) rotate(-2.8)"/><rect class="cls-1" x="320.67" y="74.35" width="24.57" height="4.57" rx="1.62" ry="1.62" transform="translate(-3.34 16.35) rotate(-2.8)"/><path class="cls-1" d="M326.59,65.58l13.94-.88A6.7,6.7,0,0,0,346.46,60a26,26,0,0,1,5.65-9.53,48.45,48.45,0,0,0,8.63-13.13,6.53,6.53,0,0,0,.39-1.27c.54-2.66,2.24-13-2-20.75A27.81,27.81,0,0,0,345.76,3.23s-20.34-8.32-32.94,8.61-.39,32.89-.39,32.89a42.16,42.16,0,0,1,7.24,15.64A6.67,6.67,0,0,0,326.59,65.58Z"/><path class="cls-1" d="M340.6,80.83a1.47,1.47,0,0,1,1.47,1.92c-.75,2.31-2.81,5.81-8.42,6s-7.81-3-8.67-5.18a1.47,1.47,0,0,1,1.29-2Z"/><path class="cls-1" d="M174.32,85.73,153,7.81q40.56-18.13,73.6,11.57L182.29,87A4.42,4.42,0,0,1,174.32,85.73Z"/><circle class="cls-1" cx="200.04" cy="36.74" r="8.08" transform="translate(132.69 228.65) rotate(-81.07)"/><circle class="cls-1" cx="184.91" cy="20.32" r="3.81" transform="translate(136.13 199.84) rotate(-81.07)"/><path class="cls-1" d="M157.59,24.51s12.06-.81,13.58,6.15-2,11.59-8,14.25"/><circle class="cls-1" cx="180.54" cy="62.62" r="9.8" transform="translate(90.65 231.25) rotate(-81.07)"/><path class="cls-1" d="M155.17,15.64C177.8,6.71,200,9.1,221.65,26.09l.39.29,4.59-7C204.81-.31,180.3-4.31,153,7.81Z"/><path class="cls-1" d="M449.75,15.88h58.87a6.6,6.6,0,0,1,6.6,6.6V64.63a0,0,0,0,1,0,0H443.15a0,0,0,0,1,0,0V22.48A6.6,6.6,0,0,1,449.75,15.88Z" transform="translate(-0.05 0.57) rotate(-0.07)"/><path class="cls-1" d="M436.7,64.63h85a0,0,0,0,1,0,0v4.3A5.12,5.12,0,0,1,516.62,74h-74.8a5.12,5.12,0,0,1-5.12-5.12v-4.3A0,0,0,0,1,436.7,64.63Z" transform="translate(-0.08 0.57) rotate(-0.07)"/><path class="cls-1" d="M452.89,21.06h52.61a5.9,5.9,0,0,1,5.9,5.9V64.63a0,0,0,0,1,0,0H447a0,0,0,0,1,0,0V27a5.9,5.9,0,0,1,5.9-5.9Z" transform="translate(-0.05 0.57) rotate(-0.07)"/><path class="cls-1" d="M45.36,32.25s-.76-4.5,5.29-4.73S61,28.83,63.1,28.05s3.63-4.3,0-6.28S36.63,27.86,31,26.56s-4.59-6.65.85-7.48,11.4.75,15.05,0"/><path class="cls-1" d="M69.94,31.62l-49.66.07a19.71,19.71,0,1,0,.06,39.41,17.85,17.85,0,0,0,10.79-3.23s0,0,0,0l28.07,0A19.71,19.71,0,1,0,69.94,31.62"/><rect class="cls-1" x="41.74" y="48.29" width="9.09" height="2.73" rx="1.26" ry="1.26" transform="translate(-0.07 0.07) rotate(-0.08)"/><circle class="cls-1" cx="62.1" cy="53.17" r="3.18" transform="translate(-0.08 0.09) rotate(-0.08)"/><circle class="cls-1" cx="69.31" cy="45.77" r="3.18" transform="translate(-0.07 0.1) rotate(-0.08)"/><circle class="cls-1" cx="76.6" cy="53.15" r="3.18" transform="translate(-0.08 0.11) rotate(-0.08)"/><circle class="cls-1" cx="69.33" cy="60.33" r="3.18" transform="translate(-0.09 0.1) rotate(-0.08)"/><path class="cls-1" d="M18.26,56.29v2.54A1.77,1.77,0,0,0,20,60.6h1a1.77,1.77,0,0,0,1.76-1.77V56.29a1.77,1.77,0,0,1,1.76-1.77h2.26a1.77,1.77,0,0,0,1.76-1.77V51.67a1.77,1.77,0,0,0-1.77-1.76H24.67a1.77,1.77,0,0,1-1.77-1.76v-2.4A1.77,1.77,0,0,0,21.13,44H20a1.77,1.77,0,0,0-1.76,1.77v2.4a1.77,1.77,0,0,1-1.76,1.77H13.71a1.77,1.77,0,0,0-1.76,1.77v1.07a1.77,1.77,0,0,0,1.77,1.76H16.5A1.77,1.77,0,0,1,18.26,56.29Z"/><circle class="cls-1" cx="623.91" cy="51.09" r="38.24" transform="translate(-1.03 14.63) rotate(-1.34)"/><circle class="cls-1" cx="623.91" cy="51.09" r="31.51" transform="translate(-1.03 14.63) rotate(-1.34)"/><circle class="cls-1" cx="623.91" cy="51.09" r="4.62" transform="translate(-1.03 14.63) rotate(-1.34)"/><path class="cls-1" d="M622.2,33.32h2.9a0,0,0,0,1,0,0V45.89a.83.83,0,0,1-.83.83H623a.83.83,0,0,1-.83-.83V33.32A0,0,0,0,1,622.2,33.32Z" transform="translate(1248.07 65.42) rotate(178.66)"/><rect class="cls-1" x="620.17" y="7.33" width="5.57" height="5.79" transform="translate(1245.98 5.84) rotate(178.66)"/><rect class="cls-1" x="619.5" y="-2.55" width="6.62" height="13.14" rx="1.81" ry="1.81" transform="translate(633.38 626.75) rotate(-91.34)"/><path class="cls-1" d="M593.58,15h5.11a0,0,0,0,1,0,0v6.91a1.53,1.53,0,0,1-1.53,1.53h-2.06a1.53,1.53,0,0,1-1.53-1.53V15a0,0,0,0,1,0,0Z" transform="translate(1050.4 -367.26) rotate(137.76)"/><path class="cls-1" d="M618.42,78.35A35.72,35.72,0,0,1,600,64.81a1.2,1.2,0,0,1,.06-1.45l.83-1a1.19,1.19,0,0,1,1.87.06,37.24,37.24,0,0,0,17,12.71,1.19,1.19,0,0,1,.63,1.74l-.58,1A1.2,1.2,0,0,1,618.42,78.35Z"/></g></g></svg>