<svg xmlns="http://www.w3.org/2000/svg" xmlns:xlink="http://www.w3.org/1999/xlink" viewBox="0 0 661.56 88.73"><defs><style>.cls-1{fill:url(#linear-gradient);}.cls-2{fill:url(#linear-gradient-2);}.cls-3{fill:url(#linear-gradient-3);}.cls-4{fill:url(#linear-gradient-4);}.cls-5{fill:url(#linear-gradient-5);}.cls-6{fill:url(#linear-gradient-6);}.cls-7{fill:url(#linear-gradient-7);}.cls-8{fill:url(#linear-gradient-8);}.cls-9{fill:url(#linear-gradient-9);}.cls-10{fill:url(#linear-gradient-10);}.cls-11{fill:url(#linear-gradient-11);}.cls-12{fill:url(#linear-gradient-12);}.cls-13{fill:url(#linear-gradient-13);}.cls-14{fill:url(#linear-gradient-14);}.cls-15{fill:url(#linear-gradient-15);}.cls-16{fill:url(#linear-gradient-16);}.cls-17{fill:url(#linear-gradient-17);}.cls-18{fill:url(#linear-gradient-18);}.cls-19{fill:url(#linear-gradient-19);}.cls-20{fill:url(#linear-gradient-20);}.cls-21{fill:url(#linear-gradient-21);}.cls-22{fill:url(#linear-gradient-22);}.cls-23{fill:url(#linear-gradient-23);}.cls-24{fill:url(#linear-gradient-24);}.cls-25{fill:url(#linear-gradient-25);}.cls-26{fill:url(#linear-gradient-26);}.cls-27{fill:url(#linear-gradient-27);}.cls-28{fill:url(#linear-gradient-28);}.cls-29{fill:url(#linear-gradient-29);}</style><linearGradient id="linear-gradient" x1="19.01" y1="71.52" x2="1034.54" y2="63.71" gradientTransform="translate(3.77 -16.17) rotate(2.8)" gradientUnits="userSpaceOnUse"><stop offset="0" stop-color="#91e9dd"/><stop offset="0.5" stop-color="#f2684a"/><stop offset="1" stop-color="#dc382c"/></linearGradient><linearGradient id="linear-gradient-2" x1="19.07" y1="78.45" x2="1034.6" y2="70.63" gradientTransform="translate(4.11 -16.14) rotate(2.8)" xlink:href="#linear-gradient"/><linearGradient id="linear-gradient-3" x1="18.73" y1="35.18" x2="1034.26" y2="27.37" gradientTransform="matrix(1, 0, 0, 1, 0, 0)" xlink:href="#linear-gradient"/><linearGradient id="linear-gradient-4" x1="19.13" y1="86.62" x2="1034.66" y2="78.81" gradientTransform="matrix(1, 0, 0, 1, 0, 0)" xlink:href="#linear-gradient"/><linearGradient id="linear-gradient-5" x1="18.81" y1="45.61" x2="1034.34" y2="37.79" gradientTransform="matrix(1, 0, 0, 1, 0, 0)" xlink:href="#linear-gradient"/><linearGradient id="linear-gradient-6" x1="18.75" y1="37.53" x2="1034.28" y2="29.72" gradientTransform="translate(204.18 -166.5) rotate(81.07)" xlink:href="#linear-gradient"/><linearGradient id="linear-gradient-7" x1="18.63" y1="20.99" x2="1034.16" y2="13.18" gradientTransform="translate(175.18 -165.42) rotate(81.07)" xlink:href="#linear-gradient"/><linearGradient id="linear-gradient-8" x1="18.73" y1="35.18" x2="1034.26" y2="27.37" gradientTransform="matrix(1, 0, 0, 1, 0, 0)" xlink:href="#linear-gradient"/><linearGradient id="linear-gradient-9" x1="18.95" y1="63.26" x2="1034.48" y2="55.44" gradientTransform="translate(213.27 -125.37) rotate(81.07)" xlink:href="#linear-gradient"/><linearGradient id="linear-gradient-10" x1="18.58" y1="14.48" x2="1034.11" y2="6.66" gradientTransform="matrix(1, 0, 0, 1, 0, 0)" xlink:href="#linear-gradient"/><linearGradient id="linear-gradient-11" x1="18.8" y1="43.21" x2="1034.33" y2="35.4" gradientTransform="translate(0.05 -0.57) rotate(0.07)" xlink:href="#linear-gradient"/><linearGradient id="linear-gradient-12" x1="19.02" y1="72.26" x2="1034.55" y2="64.44" gradientTransform="translate(0.08 -0.57) rotate(0.07)" xlink:href="#linear-gradient"/><linearGradient id="linear-gradient-13" x1="18.82" y1="45.8" x2="1034.35" y2="37.99" gradientTransform="translate(0.05 -0.57) rotate(0.07)" xlink:href="#linear-gradient"/><linearGradient id="linear-gradient-14" x1="18.66" y1="24.92" x2="1034.19" y2="17.11" gradientTransform="matrix(1, 0, 0, 1, 0, 0)" xlink:href="#linear-gradient"/><linearGradient id="linear-gradient-15" x1="18.86" y1="50.96" x2="1034.39" y2="43.15" gradientTransform="matrix(1, 0, 0, 1, 0, 0)" xlink:href="#linear-gradient"/><linearGradient id="linear-gradient-16" x1="18.84" y1="49.26" x2="1034.37" y2="41.45" gradientTransform="translate(0.07 -0.07) rotate(0.08)" xlink:href="#linear-gradient"/><linearGradient id="linear-gradient-17" x1="18.87" y1="52.9" x2="1034.4" y2="45.09" gradientTransform="translate(0.08 -0.09) rotate(0.08)" xlink:href="#linear-gradient"/><linearGradient id="linear-gradient-18" x1="18.81" y1="45.55" x2="1034.34" y2="37.74" gradientTransform="translate(0.06 -0.1) rotate(0.08)" xlink:href="#linear-gradient"/><linearGradient id="linear-gradient-19" x1="18.87" y1="52.99" x2="1034.4" y2="45.18" gradientTransform="translate(0.08 -0.11) rotate(0.08)" xlink:href="#linear-gradient"/><linearGradient id="linear-gradient-20" x1="18.93" y1="60.11" x2="1034.46" y2="52.3" gradientTransform="translate(0.09 -0.1) rotate(0.08)" xlink:href="#linear-gradient"/><linearGradient id="linear-gradient-21" x1="18.86" y1="51.7" x2="1034.39" y2="43.89" gradientTransform="matrix(1, 0, 0, 1, 0, 0)" xlink:href="#linear-gradient"/><linearGradient id="linear-gradient-22" x1="18.89" y1="55.14" x2="1034.42" y2="47.33" gradientTransform="translate(1.35 -14.59) rotate(1.34)" xlink:href="#linear-gradient"/><linearGradient id="linear-gradient-23" x1="18.89" y1="55.14" x2="1034.42" y2="47.33" gradientTransform="translate(1.35 -14.59) rotate(1.34)" xlink:href="#linear-gradient"/><linearGradient id="linear-gradient-24" x1="18.89" y1="55.14" x2="1034.42" y2="47.33" gradientTransform="translate(1.35 -14.59) rotate(1.34)" xlink:href="#linear-gradient"/><linearGradient id="linear-gradient-25" x1="18.8" y1="44.08" x2="1034.33" y2="36.26" gradientTransform="translate(1245.01 93.43) rotate(-178.66)" xlink:href="#linear-gradient"/><linearGradient id="linear-gradient-26" x1="18.57" y1="14.27" x2="1034.1" y2="6.45" gradientTransform="translate(1244.31 33.82) rotate(-178.66)" xlink:href="#linear-gradient"/><linearGradient id="linear-gradient-27" x1="18.53" y1="8.06" x2="1034.06" y2="0.25" gradientTransform="translate(640.21 -618.54) rotate(91.34)" xlink:href="#linear-gradient"/><linearGradient id="linear-gradient-28" x1="18.64" y1="23.41" x2="1034.17" y2="15.6" gradientTransform="translate(1023.87 432.83) rotate(-137.76)" xlink:href="#linear-gradient"/><linearGradient id="linear-gradient-29" x1="19.03" y1="74.12" x2="1034.56" y2="66.3" gradientTransform="matrix(1, 0, 0, 1, 0, 0)" xlink:href="#linear-gradient"/></defs><title>Asset 8</title><g id="Layer_2" data-name="Layer 2"><g id="Camada_1" data-name="Camada 1"><rect class="cls-1" x="320.47" y="66.82" width="24.57" height="4.57" rx="1.62" ry="1.62" transform="translate(-2.98 16.33) rotate(-2.8)"/><rect class="cls-2" x="320.07" y="73.75" width="24.57" height="4.57" rx="1.62" ry="1.62" transform="translate(-3.32 16.32) rotate(-2.8)"/><path class="cls-3" d="M326,65l13.94-.88a6.7,6.7,0,0,0,5.93-4.66,26,26,0,0,1,5.65-9.53,48.45,48.45,0,0,0,8.63-13.13,6.53,6.53,0,0,0,.39-1.27c.54-2.66,2.24-13-2-20.75A27.81,27.81,0,0,0,345.16,2.63s-20.34-8.32-32.94,8.61-.39,32.89-.39,32.89a42.16,42.16,0,0,1,7.24,15.64A6.67,6.67,0,0,0,326,65Z"/><path class="cls-4" d="M340,80.23a1.47,1.47,0,0,1,1.47,1.92c-.75,2.31-2.81,5.81-8.42,6s-7.81-3-8.67-5.18a1.47,1.47,0,0,1,1.29-2Z"/><path class="cls-5" d="M173.72,85.13,152.43,7.21Q193-10.92,226,18.78L181.69,86.39A4.42,4.42,0,0,1,173.72,85.13Z"/><circle class="cls-6" cx="199.44" cy="36.14" r="8.08" transform="translate(132.78 227.55) rotate(-81.07)"/><circle class="cls-7" cx="184.31" cy="19.72" r="3.81" transform="translate(136.22 198.74) rotate(-81.07)"/><path class="cls-8" d="M157,23.91s12.06-.81,13.58,6.15-2,11.59-8,14.25"/><circle class="cls-9" cx="179.94" cy="62.02" r="9.8" transform="translate(90.74 230.15) rotate(-81.07)"/><path class="cls-10" d="M154.57,15C177.2,6.11,199.4,8.5,221.05,25.49l.39.29,4.59-7C204.21-.91,179.7-4.91,152.43,7.21Z"/><path class="cls-11" d="M449.15,15.28H508a6.6,6.6,0,0,1,6.6,6.6V64a0,0,0,0,1,0,0H442.55a0,0,0,0,1,0,0V21.88A6.6,6.6,0,0,1,449.15,15.28Z" transform="translate(-0.05 0.57) rotate(-0.07)"/><path class="cls-12" d="M436.1,64h85a0,0,0,0,1,0,0v4.3A5.12,5.12,0,0,1,516,73.45h-74.8a5.12,5.12,0,0,1-5.12-5.12V64a0,0,0,0,1,0,0Z" transform="translate(-0.08 0.57) rotate(-0.07)"/><path class="cls-13" d="M452.29,20.46h52.61a5.9,5.9,0,0,1,5.9,5.9V64a0,0,0,0,1,0,0H446.39a0,0,0,0,1,0,0V26.36a5.9,5.9,0,0,1,5.9-5.9Z" transform="translate(-0.05 0.57) rotate(-0.07)"/><path class="cls-14" d="M44.35,31.72a4.44,4.44,0,0,1,.91-3.31c1-1.18,2.57-1.83,4.78-1.91a45.64,45.64,0,0,1,7.69.46c2,.25,3.66.45,4.62.1a3.09,3.09,0,0,0,1.9-2.58,3.16,3.16,0,0,0-2-2.93c-1.71-.93-8.65.7-15.37,2.27S33.16,27,30.29,26.37c-3.1-.72-4.14-2.56-4.09-4,.08-2.08,2.12-3.83,5-4.27a38.78,38.78,0,0,1,8.62,0,25.33,25.33,0,0,0,6.41,0l.17.82a25.59,25.59,0,0,1-6.65,0,37.83,37.83,0,0,0-8.43,0c-2.85.44-4.2,2.1-4.25,3.47s1.23,2.68,3.44,3.19c2.68.62,9.58-1,16.25-2.55,7.5-1.75,14-3.27,16-2.18,2.23,1.21,2.46,2.86,2.4,3.73a4,4,0,0,1-2.45,3.31c-1.16.43-2.77.23-5,0a45.49,45.49,0,0,0-7.55-.46c-2,.07-3.35.61-4.16,1.59a3.65,3.65,0,0,0-.74,2.65Z"/><path class="cls-15" d="M69.34,31l-49.66.07a19.71,19.71,0,1,0,.06,39.41,17.85,17.85,0,0,0,10.79-3.23s0,0,0,0l28.07,0A19.71,19.71,0,1,0,69.34,31"/><rect class="cls-16" x="41.14" y="47.69" width="9.09" height="2.73" rx="1.26" ry="1.26" transform="translate(-0.07 0.07) rotate(-0.08)"/><circle class="cls-17" cx="61.5" cy="52.57" r="3.18" transform="translate(-0.08 0.09) rotate(-0.08)"/><circle class="cls-18" cx="68.71" cy="45.17" r="3.18" transform="translate(-0.06 0.1) rotate(-0.08)"/><circle class="cls-19" cx="76" cy="52.55" r="3.18" transform="translate(-0.08 0.11) rotate(-0.08)"/><circle class="cls-20" cx="68.73" cy="59.73" r="3.18" transform="translate(-0.09 0.1) rotate(-0.08)"/><path class="cls-21" d="M17.66,55.69v2.54A1.77,1.77,0,0,0,19.44,60h1a1.77,1.77,0,0,0,1.76-1.77V55.69A1.77,1.77,0,0,1,24,53.92h2.26A1.77,1.77,0,0,0,28,52.14V51.07a1.77,1.77,0,0,0-1.77-1.76H24.07a1.77,1.77,0,0,1-1.77-1.76v-2.4a1.77,1.77,0,0,0-1.77-1.76H19.41a1.77,1.77,0,0,0-1.76,1.77v2.4a1.77,1.77,0,0,1-1.76,1.77H13.11a1.77,1.77,0,0,0-1.76,1.77v1.07a1.77,1.77,0,0,0,1.77,1.76H15.9A1.77,1.77,0,0,1,17.66,55.69Z"/><circle class="cls-22" cx="623.31" cy="50.49" r="38.24" transform="translate(-1.01 14.62) rotate(-1.34)"/><circle class="cls-23" cx="623.31" cy="50.49" r="31.51" transform="translate(-1.01 14.62) rotate(-1.34)"/><circle class="cls-24" cx="623.31" cy="50.49" r="4.62" transform="translate(-1.01 14.62) rotate(-1.34)"/><path class="cls-25" d="M621.6,32.72h2.9a0,0,0,0,1,0,0V45.29a.83.83,0,0,1-.83.83h-1.23a.83.83,0,0,1-.83-.83V32.72A0,0,0,0,1,621.6,32.72Z" transform="translate(1246.86 64.23) rotate(178.66)"/><rect class="cls-26" x="619.57" y="6.73" width="5.57" height="5.79" transform="matrix(-1, 0.02, -0.02, -1, 1244.77, 4.66)"/><rect class="cls-27" x="618.9" y="-3.15" width="6.62" height="13.14" rx="1.81" ry="1.81" transform="translate(633.37 625.54) rotate(-91.34)"/><path class="cls-28" d="M593,14.44h5.11a0,0,0,0,1,0,0v6.91a1.53,1.53,0,0,1-1.53,1.53h-2.06A1.53,1.53,0,0,1,593,21.35V14.44a0,0,0,0,1,0,0Z" transform="translate(1048.95 -367.9) rotate(137.76)"/><path class="cls-29" d="M617.82,77.75a35.72,35.72,0,0,1-18.41-13.54,1.2,1.2,0,0,1,.06-1.45l.83-1a1.19,1.19,0,0,1,1.87.06,37.24,37.24,0,0,0,17,12.71,1.19,1.19,0,0,1,.63,1.74l-.58,1A1.2,1.2,0,0,1,617.82,77.75Z"/></g></g></svg>