<?xml version="1.0" encoding="UTF-8"?>
<svg width="284px" height="297px" viewBox="0 0 284 297" version="1.1" xmlns="http://www.w3.org/2000/svg" xmlns:xlink="http://www.w3.org/1999/xlink">
    <!-- Generator: Sketch 46.2 (44496) - http://www.bohemiancoding.com/sketch -->
    <title>Page 1</title>
    <desc>Created with Sketch.</desc>
    <defs>
        <polygon id="path-1" points="2.56030955e-15 97.4479 2.56030955e-15 0.731126471 90.2502 0.731126471 90.2502 97.4479"></polygon>
        <polygon id="path-3" points="0.7456 0.836 99.5906 0.836 99.5906 62.9146 0.7456 62.9146"></polygon>
    </defs>
    <g id="Page-1" stroke="none" stroke-width="1" fill="none" fill-rule="evenodd">
        <g transform="translate(0.000000, -1.000000)">
            <path d="M178.6472,213.0871 C187.8212,207.7711 196.5122,202.1431 204.6722,196.2761 C209.0902,170.9081 211.6362,138.8501 207.6102,105.4881 C206.2802,104.5801 204.9182,103.6721 203.5492,102.7711 C194.4092,96.7401 184.6272,91.0201 174.2882,85.6821 C166.4652,81.6421 158.5872,78.0401 150.8212,74.7621 C146.0132,72.7291 141.1292,70.8451 136.0202,69.0691 C125.5432,73.6461 114.9642,78.9761 104.4292,85.0801 C95.0012,90.5441 86.0842,96.3421 77.7312,102.3861 C75.2582,116.4791 73.7062,131.5131 73.2672,147.1541 C72.8232,162.8961 73.5302,178.0801 75.2272,192.3591 C97.8502,207.5601 122.9592,220.2251 147.0012,229.1331 C157.4912,224.5421 168.0942,219.2101 178.6472,213.0871" id="Fill-1" fill="#6FC5E8"></path>
            <g id="Group-5" transform="translate(0.000000, 53.164000)">
                <mask id="mask-2" fill="white">
                    <use xlink:href="#path-1"></use>
                </mask>
                <g id="Clip-4"></g>
                <path d="M77.7312,49.2219 C80.6782,32.4029 84.9502,16.9379 90.2502,3.4189 C48.4242,-3.6871 15.0242,3.2409 3.8622,24.8729 C-6.0288,44.0359 3.5952,70.7519 26.8072,97.4479 C39.4692,80.9559 56.8082,64.3449 77.7312,49.2219" id="Fill-3" fill="#6FC5E8" mask="url(#mask-2)"></path>
            </g>
            <path d="M256.2762,147.5597 C246.3362,160.5147 233.5062,173.5307 218.3222,185.8537 C216.7312,208.7887 212.9632,229.0857 208.3832,243.6147 C242.8092,246.6827 269.4832,238.9997 279.2182,220.1297 C289.1122,200.9667 279.4912,174.2507 256.2762,147.5597" id="Fill-6" fill="#6FC5E8"></path>
            <g id="Group-10" transform="translate(95.000000, 0.164000)">
                <mask id="mask-4" fill="white">
                    <use xlink:href="#path-3"></use>
                </mask>
                <g id="Clip-9"></g>
                <path d="M99.5906,50.9406 C98.2406,47.3346 96.7776,43.7456 95.2056,40.1826 C94.2936,38.4546 78.7896,1.6576 50.7326,0.8486 C31.6426,0.3006 13.9086,16.8186 0.7456,43.8476 C21.1066,49.6366 39.4936,56.0116 55.7566,62.9146 C70.9856,57.2216 85.7776,53.2226 99.5906,50.9406" id="Fill-8" fill="#6FC5E8" mask="url(#mask-4)"></path>
            </g>
            <path d="M88.158,247.1212 C99.804,277.3322 117.311,296.5892 137.359,297.1512 C155.843,297.6702 173.063,282.2042 186.089,256.6822 C173.986,253.4262 153.874,246.4412 131.241,235.5082 C116.269,241.0272 101.743,244.9032 88.158,247.1212" id="Fill-11" fill="#6FC5E8"></path>
            <path d="M25.8025,151.9337 C4.8615,179.7417 -2.6885,207.0897 8.4175,226.2527 C20.2215,246.6147 50.5375,253.2617 88.1575,247.1217 C83.1715,234.1817 79.2605,219.2307 76.6795,202.8897 C57.5485,188.7557 39.5925,171.8087 25.8025,151.9337" id="Fill-13" fill="#6FC5E8"></path>
            <path d="M256.9031,146.7443 C278.1371,118.7573 285.8401,91.1973 274.6631,71.9233 C262.9671,51.7433 233.1051,45.0253 195.9671,50.8733 C203.6321,66.0963 209.1081,82.6893 212.7851,99.7203 C237.3741,119.4803 251.1461,137.9933 256.9031,146.7443" id="Fill-15" fill="#6FC5E8"></path>
            <path d="M214.8738,110.6037 C219.2858,136.3027 219.9478,162.4567 218.3218,185.8537 C233.5068,173.5307 246.3358,160.5147 256.2758,147.5597 C255.0458,146.1447 253.7798,144.7287 252.4738,143.3167 C243.5788,133.8487 230.9778,122.3057 214.8738,110.6037" id="Fill-17" fill="#0094C8"></path>
            <path d="M76.6795,202.8898 C79.2605,219.2308 83.1715,234.1818 88.1585,247.1208 C101.7425,244.9038 116.2695,241.0278 131.2415,235.5078 C113.7165,227.0438 94.7005,216.2128 76.6795,202.8898" id="Fill-19" fill="#0094C8"></path>
            <path d="M178.6472,213.0871 C168.0942,219.2101 157.4912,224.5421 147.0012,229.1331 C152.2252,231.0341 154.6832,231.9071 158.7312,233.2051 C169.8842,236.7761 180.7412,239.4161 191.0492,241.2821 C191.3772,241.3411 191.7082,241.4021 192.0302,241.4551 C192.3032,241.4961 192.5692,241.5341 192.8422,241.5811 C193.3542,240.2801 193.8562,238.9471 194.3512,237.6061 C197.6472,228.2311 201.6082,213.8601 204.6722,196.2761 C196.5122,202.1431 187.8212,207.7711 178.6472,213.0871" id="Fill-21" fill="#0094C8"></path>
            <path d="M104.4295,85.0802 C114.9645,78.9762 125.5435,73.6452 136.0205,69.0692 C121.8235,64.1332 106.7555,59.7352 90.4905,56.6212 C90.4105,56.6032 90.3255,56.5952 90.2495,56.5832 C84.9505,70.1012 80.6785,85.5662 77.7315,102.3862 C86.0835,96.3422 95.0015,90.5442 104.4295,85.0802" id="Fill-23" fill="#0094C8"></path>
            <path d="M51.3318,174.5089 C52.1548,175.2029 52.9668,175.8929 53.8048,176.5719 C53.8898,176.6399 53.9798,176.7119 54.0618,176.7799 C60.7698,182.2169 67.8698,187.4229 75.2278,192.3599 C73.5298,178.0799 72.8228,162.8959 73.2678,147.1549 C73.7058,131.5129 75.2588,116.4789 77.7308,102.3859 C56.8088,117.5089 39.4698,134.1199 26.8078,150.6119 C33.8038,158.6399 42.0328,166.6869 51.3318,174.5089" id="Fill-25" fill="#0094C8"></path>
            <path d="M206.0457,94.4992 C203.6707,80.0232 199.9737,65.4132 194.5907,51.1042 C180.7767,53.3872 165.9847,57.3862 150.7567,63.0782 C166.4347,69.7282 180.1377,76.8712 191.7077,84.4312 C196.8167,87.7722 201.5807,91.1452 206.0457,94.4992" id="Fill-27" fill="#0094C8"></path>
        </g>
    </g>
</svg>