<?xml version="1.0" encoding="UTF-8"?>
<svg width="421px" height="237px" viewBox="0 0 421 237" version="1.1" xmlns="http://www.w3.org/2000/svg" xmlns:xlink="http://www.w3.org/1999/xlink">
    <!-- Generator: Sketch 46.2 (44496) - http://www.bohemiancoding.com/sketch -->
    <title>Group 50</title>
    <desc>Created with Sketch.</desc>
    <defs>
        <polygon id="path-1" points="38.322375 0.900641975 0.294125 0.900641975 0.294125 87.1759506 38.322375 87.1759506 38.322375 0.900641975"></polygon>
        <polygon id="path-3" points="32.5478292 85 64.4215 85 64.4215 0.628782051 0.674158333 0.628782051 0.674158333 85 32.5478292 85"></polygon>
    </defs>
    <g id="Page-1" stroke="none" stroke-width="1" fill="none" fill-rule="evenodd">
        <g id="Desktop-HD" transform="translate(-510.000000, -250.000000)">
            <g id="HERO-Section">
                <g id="Group-29" transform="translate(510.000000, 250.000000)">
                    <g id="Group-42">
                        <g id="Group-4">
                            <g id="Group-3">
                                <g id="Group-50">
                                    <path d="M23.188,207.796 C21.5159916,207.12133 19.7706758,206.784 17.952,206.784 C15.3999872,206.784 13.0460108,207.399994 10.89,208.632 C8.73398922,209.864006 7.02533964,211.535989 5.764,213.648 C4.50266036,215.760011 3.872,218.062654 3.872,220.556 C3.872,223.049346 4.50266036,225.351989 5.764,227.464 C7.02533964,229.576011 8.73398922,231.255327 10.89,232.502 C13.0460108,233.748673 15.3999872,234.372 17.952,234.372 C19.7706758,234.372 21.5086584,234.042003 23.166,233.382 C24.8233416,232.721997 26.3119934,231.790673 27.632,230.588 L28.776,231.864 C27.3386595,233.21334 25.6740095,234.26933 23.782,235.032 C21.8899905,235.79467 19.9320101,236.176 17.908,236.176 C15.033319,236.176 12.3786788,235.47934 9.944,234.086 C7.50932116,232.69266 5.58067378,230.800679 4.158,228.41 C2.73532622,226.019321 2.024,223.416014 2.024,220.6 C2.024,217.783986 2.73532622,215.180679 4.158,212.79 C5.58067378,210.399321 7.50932116,208.50734 9.944,207.114 C12.3786788,205.72066 15.033319,205.024 17.908,205.024 C19.9320101,205.024 21.875324,205.390663 23.738,206.124 C25.600676,206.857337 27.265326,207.883993 28.732,209.204 L27.632,210.612 C26.3413269,209.409327 24.8600084,208.47067 23.188,207.796 Z M50.0126667,214.506 C51.7286753,215.488672 53.0706618,216.852658 54.0386667,218.598 C55.0066715,220.343342 55.4906667,222.315989 55.4906667,224.516 C55.4906667,226.745344 55.0066715,228.732658 54.0386667,230.478 C53.0706618,232.223342 51.7286753,233.587328 50.0126667,234.57 C48.2966581,235.552672 46.3533442,236.044 44.1826667,236.044 C42.0413226,236.044 40.1126753,235.552672 38.3966667,234.57 C36.6806581,233.587328 35.3313383,232.223342 34.3486667,230.478 C33.3659951,228.732658 32.8746667,226.745344 32.8746667,224.516 C32.8746667,222.315989 33.3659951,220.343342 34.3486667,218.598 C35.3313383,216.852658 36.6806581,215.488672 38.3966667,214.506 C40.1126753,213.523328 42.0413226,213.032 44.1826667,213.032 C46.3533442,213.032 48.2966581,213.523328 50.0126667,214.506 Z M39.2986667,216.024 C37.8613262,216.845337 36.7320041,217.996659 35.9106667,219.478 C35.0893292,220.959341 34.6786667,222.638657 34.6786667,224.516 C34.6786667,226.422676 35.0893292,228.123993 35.9106667,229.62 C36.7320041,231.116007 37.8613262,232.274663 39.2986667,233.096 C40.7360072,233.917337 42.3639909,234.328 44.1826667,234.328 C46.0013424,234.328 47.6366594,233.917337 49.0886667,233.096 C50.5406739,232.274663 51.669996,231.116007 52.4766667,229.62 C53.2833374,228.123993 53.6866667,226.422676 53.6866667,224.516 C53.6866667,222.638657 53.2833374,220.959341 52.4766667,219.478 C51.669996,217.996659 50.5406739,216.845337 49.0886667,216.024 C47.6366594,215.202663 46.0013424,214.792 44.1826667,214.792 C42.3639909,214.792 40.7360072,215.202663 39.2986667,216.024 Z M98.1113334,215.408 C99.6513411,216.992008 100.421333,219.191986 100.421333,222.008 L100.421333,236 L98.6173334,236 L98.6173334,222.36 C98.6173334,220.013322 97.9720065,218.180007 96.6813334,216.86 C95.3906603,215.539993 93.5866783,214.88 91.2693334,214.88 C88.5413197,214.938667 86.4073411,215.847991 84.8673334,217.608 C83.3273257,219.368009 82.5573334,221.758652 82.5573334,224.78 L82.5573334,236 L80.7533334,236 L80.7533334,222.36 C80.7533334,220.013322 80.1006732,218.180007 78.7953334,216.86 C77.4899935,215.539993 75.6933448,214.88 73.4053334,214.88 C70.6773197,214.938667 68.5360078,215.855324 66.9813334,217.63 C65.4266589,219.404676 64.6493334,221.787985 64.6493334,224.78 L64.6493334,236 L62.8453334,236 L62.8453334,213.076 L64.6493334,213.076 L64.6493334,219.104 C65.3826704,217.138657 66.5339922,215.650005 68.1033334,214.638 C69.6726746,213.625995 71.6013219,213.090667 73.8893334,213.032 C76.1773448,213.032 78.0546594,213.611328 79.5213334,214.77 C80.9880074,215.928672 81.9266647,217.563989 82.3373334,219.676 C83.0413369,217.534656 84.1926587,215.906672 85.7913334,214.792 C87.390008,213.677328 89.362655,213.090667 91.7093334,213.032 C94.437347,213.032 96.5713257,213.823992 98.1113334,215.408 Z M123.946,214.55 C125.574008,215.562005 126.805996,216.977324 127.642,218.796 C128.478004,220.614676 128.881334,222.697322 128.852,225.044 L108.832,225.044 C108.92,226.892009 109.374663,228.519993 110.196,229.928 C111.017337,231.336007 112.131993,232.428663 113.54,233.206 C114.948007,233.983337 116.531991,234.372 118.292,234.372 C119.846674,234.372 121.291327,234.100669 122.626,233.558 C123.960673,233.015331 125.097329,232.230672 126.036,231.204 L127.092,232.392 C126.006661,233.565339 124.701341,234.46733 123.176,235.098 C121.650659,235.72867 119.993342,236.044 118.204,236.044 C116.062656,236.044 114.141342,235.552672 112.44,234.57 C110.738658,233.587328 109.411338,232.223342 108.458,230.478 C107.504662,228.732658 107.028,226.760011 107.028,224.56 C107.028,222.359989 107.511995,220.380009 108.48,218.62 C109.448005,216.859991 110.775325,215.488672 112.462,214.506 C114.148675,213.523328 116.062656,213.032 118.204,213.032 C120.404011,213.032 122.317992,213.537995 123.946,214.55 Z M127.18,223.416 C127.003999,220.775987 126.109341,218.664008 124.496,217.08 C122.882659,215.495992 120.785346,214.704 118.204,214.704 C115.622654,214.704 113.481342,215.503325 111.78,217.102 C110.078658,218.700675 109.110668,220.80532 108.876,223.416 L127.18,223.416 Z M154.737333,214.704 C153.035992,214.704 151.657339,215.033997 150.601333,215.694 C149.545328,216.354003 149.017333,217.343993 149.017333,218.664 C149.017333,219.544004 149.281331,220.27733 149.809333,220.864 C150.337336,221.45067 150.997329,221.905332 151.789333,222.228 C152.581337,222.550668 153.651993,222.917331 155.001333,223.328 C156.614675,223.826669 157.905329,224.295998 158.873333,224.736 C159.841338,225.176002 160.669997,225.806663 161.359333,226.628 C162.04867,227.449337 162.393333,228.53466 162.393333,229.884 C162.393333,231.90801 161.630674,233.440661 160.105333,234.482 C158.579992,235.523339 156.688011,236.044 154.429333,236.044 C152.815992,236.044 151.276007,235.765336 149.809333,235.208 C148.342659,234.650664 147.081339,233.873338 146.025333,232.876 L146.861333,231.468 C147.858672,232.406671 149.02466,233.125331 150.359333,233.624 C151.694007,234.122669 153.079993,234.372 154.517333,234.372 C156.277342,234.372 157.736661,234.005337 158.895333,233.272 C160.054006,232.538663 160.633333,231.468007 160.633333,230.06 C160.633333,229.121329 160.362003,228.351336 159.819333,227.75 C159.276664,227.148664 158.594671,226.672002 157.773333,226.32 C156.951996,225.967998 155.852007,225.586669 154.473333,225.176 C152.889326,224.677331 151.628005,224.215335 150.689333,223.79 C149.750662,223.364665 148.944003,222.748671 148.269333,221.942 C147.594663,221.135329 147.257333,220.086673 147.257333,218.796 C147.257333,216.889324 147.96866,215.452005 149.391333,214.484 C150.814007,213.515995 152.610656,213.032 154.781333,213.032 C157.186679,213.032 159.37199,213.633327 161.337333,214.836 L160.545333,216.332 C158.843992,215.246661 156.908011,214.704 154.737333,214.704 Z M187.282,215.43 C188.851341,217.028675 189.636,219.221319 189.636,222.008 L189.636,236 L187.788,236 L187.788,222.36 C187.788,220.013322 187.128007,218.180007 185.808,216.86 C184.487994,215.539993 182.654679,214.88 180.308,214.88 C177.491986,214.938667 175.292008,215.847991 173.708,217.608 C172.123992,219.368009 171.332,221.758652 171.332,224.78 L171.332,236 L169.484,236 L169.484,203.352 L171.332,203.352 L171.332,219.06 C172.094671,217.12399 173.275325,215.650005 174.874,214.638 C176.472675,213.625995 178.430655,213.090667 180.748,213.032 C183.534681,213.032 185.712659,213.831325 187.282,215.43 Z M198.706667,213.076 L200.510667,213.076 L200.510667,236 L198.706667,236 L198.706667,213.076 Z M200.708667,205.354 C201.016668,205.662002 201.170667,206.035998 201.170667,206.476 C201.170667,206.945336 201.016668,207.333998 200.708667,207.642 C200.400665,207.950002 200.041336,208.104 199.630667,208.104 C199.219998,208.104 198.860668,207.950002 198.552667,207.642 C198.244665,207.333998 198.090667,206.945336 198.090667,206.476 C198.090667,206.035998 198.244665,205.662002 198.552667,205.354 C198.860668,205.045998 199.219998,204.892 199.630667,204.892 C200.041336,204.892 200.400665,205.045998 200.708667,205.354 Z M214.091333,206.234 C213.137995,207.246005 212.661333,208.558659 212.661333,210.172 L212.661333,213.648 L219.745333,213.648 L219.745333,215.232 L212.661333,215.232 L212.661333,236 L210.857333,236 L210.857333,215.232 L207.953333,215.232 L207.953333,213.648 L210.857333,213.648 L210.857333,210.348 C210.857333,208.910659 211.157997,207.634672 211.759333,206.52 C212.36067,205.405328 213.167328,204.53267 214.179333,203.902 C215.191339,203.27133 216.283994,202.956 217.457333,202.956 C218.836007,202.956 220.141327,203.307996 221.373333,204.012 L220.801333,205.596 C219.627994,205.00933 218.586671,204.716 217.677333,204.716 C216.239993,204.716 215.044672,205.221995 214.091333,206.234 Z M235.46,234.416 C233.846659,235.501339 232.218675,236.044 230.576,236.044 C228.933325,236.044 227.672005,235.508672 226.792,234.438 C225.911996,233.367328 225.472,231.776011 225.472,229.664 L225.472,215.232 L222.128,215.232 L222.128,213.648 L225.472,213.648 L225.472,207.972 L227.232,207.972 L227.232,213.648 L235.02,213.648 L235.02,215.232 L227.232,215.232 L227.232,229.444 C227.232,232.641349 228.419988,234.24 230.796,234.24 C232.14534,234.24 233.465327,233.800004 234.756,232.92 L235.46,234.416 Z M250.785334,213.076 L252.765334,213.076 L260.421334,234.02 L268.033334,213.076 L270.013334,213.076 L277.669334,234.02 L285.281334,213.076 L287.217334,213.076 L278.549334,236 L276.657334,236 L269.045334,215.496 L261.345334,236 L259.453334,236 L250.785334,213.076 Z M292.416,213.076 L294.22,213.076 L294.22,236 L292.416,236 L292.416,213.076 Z M294.418,205.354 C294.726002,205.662002 294.88,206.035998 294.88,206.476 C294.88,206.945336 294.726002,207.333998 294.418,207.642 C294.109999,207.950002 293.750669,208.104 293.34,208.104 C292.929332,208.104 292.570002,207.950002 292.262,207.642 C291.953999,207.333998 291.8,206.945336 291.8,206.476 C291.8,206.035998 291.953999,205.662002 292.262,205.354 C292.570002,205.045998 292.929332,204.892 293.34,204.892 C293.750669,204.892 294.109999,205.045998 294.418,205.354 Z M314.862667,234.416 C313.249326,235.501339 311.621342,236.044 309.978667,236.044 C308.335992,236.044 307.074671,235.508672 306.194667,234.438 C305.314663,233.367328 304.874667,231.776011 304.874667,229.664 L304.874667,215.232 L301.530667,215.232 L301.530667,213.648 L304.874667,213.648 L304.874667,207.972 L306.634667,207.972 L306.634667,213.648 L314.422667,213.648 L314.422667,215.232 L306.634667,215.232 L306.634667,229.444 C306.634667,232.641349 307.822655,234.24 310.198667,234.24 C311.548007,234.24 312.867994,233.800004 314.158667,232.92 L314.862667,234.416 Z M339.135334,215.43 C340.704675,217.028675 341.489334,219.221319 341.489334,222.008 L341.489334,236 L339.641334,236 L339.641334,222.36 C339.641334,220.013322 338.98134,218.180007 337.661334,216.86 C336.341327,215.539993 334.508012,214.88 332.161334,214.88 C329.34532,214.938667 327.145342,215.847991 325.561334,217.608 C323.977326,219.368009 323.185334,221.758652 323.185334,224.78 L323.185334,236 L321.337334,236 L321.337334,203.352 L323.185334,203.352 L323.185334,219.06 C323.948004,217.12399 325.128659,215.650005 326.727334,214.638 C328.326008,213.625995 330.283989,213.090667 332.601334,213.032 C335.388014,213.032 337.565992,213.831325 339.135334,215.43 Z M382.862667,213.076 L382.862667,236 L381.058667,236 L381.058667,229.884 C380.32533,231.878677 379.174008,233.396661 377.604667,234.438 C376.035326,235.479339 374.121345,236.014667 371.862667,236.044 C369.10532,236.044 366.956675,235.252008 365.416667,233.668 C363.876659,232.083992 363.106667,229.884014 363.106667,227.068 L363.106667,213.076 L364.910667,213.076 L364.910667,226.716 C364.910667,229.062678 365.555994,230.895993 366.846667,232.216 C368.13734,233.536007 369.941322,234.196 372.258667,234.196 C375.016014,234.137333 377.171993,233.228009 378.726667,231.468 C380.281341,229.707991 381.058667,227.317348 381.058667,224.296 L381.058667,213.076 L382.862667,213.076 Z M398.093334,214.704 C396.391992,214.704 395.013339,215.033997 393.957334,215.694 C392.901328,216.354003 392.373334,217.343993 392.373334,218.664 C392.373334,219.544004 392.637331,220.27733 393.165334,220.864 C393.693336,221.45067 394.35333,221.905332 395.145334,222.228 C395.937338,222.550668 397.007994,222.917331 398.357334,223.328 C399.970675,223.826669 401.261329,224.295998 402.229334,224.736 C403.197339,225.176002 404.025997,225.806663 404.715334,226.628 C405.40467,227.449337 405.749334,228.53466 405.749334,229.884 C405.749334,231.90801 404.986675,233.440661 403.461334,234.482 C401.935993,235.523339 400.044012,236.044 397.785334,236.044 C396.171992,236.044 394.632008,235.765336 393.165334,235.208 C391.69866,234.650664 390.437339,233.873338 389.381334,232.876 L390.217334,231.468 C391.214672,232.406671 392.38066,233.125331 393.715334,233.624 C395.050007,234.122669 396.435993,234.372 397.873334,234.372 C399.633342,234.372 401.092661,234.005337 402.251334,233.272 C403.410006,232.538663 403.989334,231.468007 403.989334,230.06 C403.989334,229.121329 403.718003,228.351336 403.175334,227.75 C402.632664,227.148664 401.950671,226.672002 401.129334,226.32 C400.307996,225.967998 399.208007,225.586669 397.829334,225.176 C396.245326,224.677331 394.984005,224.215335 394.045334,223.79 C393.106662,223.364665 392.300004,222.748671 391.625334,221.942 C390.950664,221.135329 390.613334,220.086673 390.613334,218.796 C390.613334,216.889324 391.32466,215.452005 392.747334,214.484 C394.170007,213.515995 395.966656,213.032 398.137334,213.032 C400.542679,213.032 402.727991,213.633327 404.693334,214.836 L403.901334,216.332 C402.199992,215.246661 400.264011,214.704 398.093334,214.704 Z M413.082,233.624 C413.390002,233.917335 413.544,234.283998 413.544,234.724 C413.544,235.193336 413.390002,235.581998 413.082,235.89 C412.773999,236.198002 412.414669,236.352 412.004,236.352 C411.593332,236.352 411.241335,236.198002 410.948,235.89 C410.654666,235.581998 410.508,235.193336 410.508,234.724 C410.508,234.283998 410.654666,233.917335 410.948,233.624 C411.241335,233.330665 411.593332,233.184 412.004,233.184 C412.414669,233.184 412.773999,233.330665 413.082,233.624 Z" id="Come-shift-with-us." fill="#000000"></path>
                                    <g id="Page-1">
                                        <path d="M65,27.1512625 C65,28.7889307 63.5259326,30.1279525 61.7219964,30.1279525 L54.2210183,30.1279525 C52.417082,30.1279525 50.9430146,31.4669744 50.9430146,33.1046426 L50.9430146,84.0233099 C50.9430146,85.6609782 49.4678585,87 47.665011,87 L4.28018099,87 C2.47733342,87 1,85.6609782 1,84.0233099 L1,62.8487375 C1,61.2110693 2.47733342,59.8720475 4.28018099,59.8720475 L11.7757157,59.8720475 C13.579652,59.8720475 15.0537194,58.5330256 15.0537194,56.8953574 L15.0537194,5.97669007 C15.0537194,4.33902184 16.5310528,3 18.334989,3 L61.7219964,3 C63.5259326,3 65,4.33902184 65,5.97669007 L65,27.1512625 Z" id="Fill-1" fill="#000000"></path>
                                        <path d="M142.013642,3 C143.654833,3 145,4.33813953 145,5.9779845 L145,84.0220155 C145,85.6586047 143.654833,87 142.013642,87 L122.370505,87 C120.729314,87 119.387412,85.6586047 119.387412,84.0220155 L119.387412,70.9542636 C119.387412,69.3144186 118.043334,67.9773643 116.401055,67.9773643 L102.598945,67.9773643 C100.956666,67.9773643 99.6125878,69.3144186 99.6125878,70.9542636 L99.6125878,84.0220155 C99.6125878,85.6586047 98.2706858,87 96.6262301,87 L76.9863576,87 C75.3451669,87 74,85.6586047 74,84.0220155 L74,5.9779845 C74,4.33813953 75.3451669,3 76.9863576,3 L96.6262301,3 C98.2706858,3 99.6125878,4.33813953 99.6125878,5.9779845 L99.6125878,19.0424806 C99.6125878,20.6790698 100.956666,22.0193798 102.598945,22.0193798 L116.401055,22.0193798 C118.043334,22.0193798 119.387412,20.6790698 119.387412,19.0424806 L119.387412,5.9779845 C119.387412,4.33813953 120.729314,3 122.370505,3 L142.013642,3 Z" id="Fill-3" fill="#000000"></path>
                                        <g id="Group-7" transform="translate(156.000000, 0.000000)">
                                            <mask id="mask-2" fill="white">
                                                <use xlink:href="#path-1"></use>
                                            </mask>
                                            <g id="Clip-6"></g>
                                            <path d="M5.666375,46.3580741 C4.04679167,46.3580741 2.72295833,47.6889383 2.72295833,49.3120494 L2.72295833,84.2219753 C2.72295833,85.8450864 4.04679167,87.1759506 5.666375,87.1759506 L32.0292917,87.1759506 C33.6510417,87.1759506 34.978125,85.8450864 34.978125,84.2219753 L34.978125,49.3120494 C34.978125,47.6889383 33.6510417,46.3580741 32.0292917,46.3580741 L5.666375,46.3580741 Z M38.322375,19.9700247 C38.322375,30.5006914 29.810625,39.0366914 19.306625,39.0366914 C8.80479167,39.0366914 0.294125,30.5006914 0.294125,19.9700247 C0.294125,9.4382716 8.80479167,0.900098765 19.306625,0.900098765 C29.810625,0.900098765 38.322375,9.4382716 38.322375,19.9700247 L38.322375,19.9700247 Z" id="Fill-5" fill="#000000" mask="url(#mask-2)"></path>
                                        </g>
                                        <path d="M242.285936,30.1264225 C240.664237,30.1264225 239.332895,31.4682202 239.332895,33.1059069 L239.332895,37.6493768 C239.332895,39.2881474 240.664237,40.6266935 242.285936,40.6266935 L249.045884,40.6266935 C250.670809,40.6266935 252,41.9663234 252,43.6040102 L252,58.647751 C252,60.2854378 250.670809,61.6250677 249.045884,61.6250677 L242.285936,61.6250677 C240.664237,61.6250677 239.332895,62.9636138 239.332895,64.6013006 L239.332895,84.0205156 C239.332895,85.6571185 238.003704,87 236.378779,87 L209.954116,87 C208.329191,87 207,85.6571185 207,84.0205156 L207,5.97623287 C207,4.3385461 208.329191,3 209.954116,3 L249.045884,3 C250.670809,3 252,4.3385461 252,5.97623287 L252,27.1491058 C252,28.7867926 250.670809,30.1264225 249.045884,30.1264225 L242.285936,30.1264225 Z" id="Fill-8" fill="#000000"></path>
                                        <path d="M319,27.148777 C319,28.7881196 317.66224,30.1285104 316.029369,30.1285104 L309.233155,30.1285104 C307.599199,30.1285104 306.261439,31.4667271 306.261439,33.1028083 L306.261439,84.0235279 C306.261439,85.6596092 304.923678,87 303.290808,87 L276.709192,87 C275.076322,87 273.738561,85.6596092 273.738561,84.0235279 L273.738561,33.1028083 C273.738561,31.4667271 272.400801,30.1285104 270.766845,30.1285104 L263.970631,30.1285104 C262.336676,30.1285104 261,28.7881196 261,27.148777 L261,5.9797334 C261,4.34039084 262.336676,3 263.970631,3 L316.029369,3 C317.66224,3 319,4.34039084 319,5.9797334 L319,27.148777 Z" id="Fill-10" fill="#000000"></path>
                                        <g id="Group-14" transform="translate(0.000000, 93.000000)" fill="#000000">
                                            <path d="M57.095025,84.0365625 C57.095025,85.6634625 55.7668583,86.9967375 54.1461917,86.9967375 L10.103275,86.9967375 C8.47935833,86.9967375 7.15335833,85.6634625 7.15335833,84.0365625 L7.15335833,73.0919625 C7.15335833,71.463975 8.47935833,70.1307 10.103275,70.1307 L54.1461917,70.1307 C55.7668583,70.1307 57.095025,71.463975 57.095025,73.0919625 L57.095025,84.0365625 Z M6.12419167,59.3416125 C0.717275,59.3416125 -1.538225,55.4701125 1.10944167,50.7394875 L27.3076917,3.9237 C29.9553583,-0.806925 34.2876083,-0.806925 36.935275,3.9237 L63.136775,50.7394875 C65.7844417,55.4701125 63.5311083,59.3416125 58.128525,59.3416125 L6.12419167,59.3416125 Z" id="Fill-12"></path>
                                        </g>
                                        <path d="M105.214597,118.96897 C101.03159,118.96897 97.6394336,122.348069 97.6394336,126.514972 C97.6394336,130.687301 101.03159,134.063144 105.214597,134.063144 C109.400871,134.063144 112.793028,130.687301 112.793028,126.514972 C112.793028,122.348069 109.400871,118.96897 105.214597,118.96897 L105.214597,118.96897 Z M107.257081,96 C124.233115,96 138,109.711717 138,126.626741 C138,143.537424 124.233115,157.251311 107.257081,157.251311 L107.257081,177.023485 C107.257081,178.660948 105.911765,180 104.267974,180 L75.9891068,180 C74.3442266,180 73,178.660948 73,177.023485 L73,98.9754295 C73,97.3423072 74.3442266,96.0032554 75.9858388,96.0032554 L104.267974,96.0032554 L107.257081,96 Z" id="Fill-15" fill="#000000"></path>
                                        <path d="M179.214597,118.96897 C175.03159,118.96897 171.639434,122.348069 171.639434,126.514972 C171.639434,130.687301 175.03159,134.063144 179.214597,134.063144 C183.400871,134.063144 186.793028,130.687301 186.793028,126.514972 C186.793028,122.348069 183.400871,118.96897 179.214597,118.96897 L179.214597,118.96897 Z M181.255991,96 C198.232026,96 212,109.711717 212,126.626741 C212,143.537424 198.232026,157.251311 181.255991,157.251311 L181.255991,177.023485 C181.255991,178.660948 179.911765,180 178.266885,180 L149.989107,180 C148.344227,180 147,178.660948 147,177.023485 L147,98.9754295 C147,97.3423072 148.344227,96.0032554 149.985839,96.0032554 L178.266885,96.0032554 L181.255991,96 Z" id="Fill-17" fill="#000000"></path>
                                        <path d="M256.782411,128.587816 C255.133904,128.587816 253.783439,129.926833 253.783439,131.565339 L253.783439,144.437917 C253.783439,146.069912 255.133904,147.408929 256.782411,147.408929 L270.005396,147.408929 C271.65281,147.408929 273,148.751201 273,150.389707 L273,177.022477 C273,178.657727 271.65281,180 270.005396,180 L223.995696,180 C222.34719,180 221,178.660983 221,177.022477 L221,98.9796931 C221,97.3390172 222.34719,96 223.995696,96 L270.005396,96 C271.65281,96 273,97.3390172 273,98.9796931 L273,125.610293 C273,127.248799 271.65281,128.587816 270.005396,128.587816 L256.782411,128.587816 Z" id="Fill-19" fill="#000000"></path>
                                        <path d="M312.641769,166.943928 C311.59971,165.683065 309.425308,166.087062 309.425308,167.726945 L309.425308,177.026491 C309.425308,178.663116 308.083031,180 306.4438,180 L287.982596,180 C286.343365,180 285,178.663116 285,177.026491 L285,98.9778531 C285,97.3412285 286.343365,96 287.982596,96 L306.393764,96 C309.234953,96 310.344453,96.9328869 311.3876,98.1937502 L320.358231,109.060416 C321.401378,110.321279 323.574692,109.916196 323.574692,108.276313 L323.574692,98.9778531 C323.574692,97.3412285 324.918057,96 326.5562,96 L345.018492,96 C346.657723,96 348,97.3412285 348,98.9778531 L348,177.026491 C348,178.663116 346.657723,180 345.018492,180 L326.606236,180 C323.762872,180 322.653372,179.071457 321.613488,177.807336 L312.641769,166.943928 Z" id="Fill-21" fill="#000000"></path>
                                        <g id="Group-25" transform="translate(356.000000, 96.000000)">
                                            <mask id="mask-4" fill="white">
                                                <use xlink:href="#path-3"></use>
                                            </mask>
                                            <g id="Clip-24"></g>
                                            <path d="M64.421825,24.8864744 C64.421825,26.5319872 62.952825,27.8767308 61.1566583,27.8767308 L53.6849083,27.8767308 C51.8887417,27.8767308 50.4197417,29.2214744 50.4197417,30.8669872 L50.4197417,82.0097436 C50.4197417,83.6552564 48.951825,85 47.1556583,85 L3.942575,85 C2.14640833,85 0.674158333,83.6552564 0.674158333,82.0097436 L0.674158333,60.7423077 C0.674158333,59.0967949 2.14640833,57.7520513 3.942575,57.7520513 L11.407825,57.7520513 C13.2039917,57.7520513 14.6729917,56.4073077 14.6729917,54.7628846 L14.6729917,3.61903846 C14.6729917,1.97352564 16.1452417,0.628782051 17.9414083,0.628782051 L61.1566583,0.628782051 C62.952825,0.628782051 64.421825,1.97352564 64.421825,3.61903846 L64.421825,24.8864744 Z" id="Fill-23" fill="#000000" mask="url(#mask-4)"></path>
                                        </g>
                                    </g>
                                </g>
                            </g>
                        </g>
                    </g>
                </g>
            </g>
        </g>
    </g>
</svg>