<?xml version="1.0" encoding="UTF-8"?>
<svg width="400px" height="401px" viewBox="0 0 400 401" version="1.1" xmlns="http://www.w3.org/2000/svg" xmlns:xlink="http://www.w3.org/1999/xlink">
    <!-- Generator: Sketch 46.2 (44496) - http://www.bohemiancoding.com/sketch -->
    <title>Combined Shape</title>
    <desc>Created with Sketch.</desc>
    <defs></defs>
    <g id="Page-1" stroke="none" stroke-width="1" fill="none" fill-rule="evenodd">
        <g id="Group-64" fill="#000000">
            <path d="M0.06,400.212 L0.06,0.212 L400,0.212 L400,400.212 L0.06,400.212 Z M153.623,301.801 C247.967,301.801 299.559,223.64 299.559,155.865 C299.559,153.644 299.514,151.433 299.412,149.234 C309.426,141.995 318.132,132.962 325,122.677 C315.809,126.759 305.919,129.511 295.544,130.751 C306.134,124.403 314.264,114.355 318.098,102.379 C308.186,108.254 297.213,112.527 285.53,114.828 C276.171,104.859 262.841,98.623 248.091,98.623 C219.763,98.623 196.792,121.594 196.792,149.911 C196.792,153.937 197.243,157.85 198.122,161.606 C155.495,159.463 117.695,139.052 92.4,108.017 C87.991,115.595 85.454,124.403 85.454,133.796 C85.454,151.592 94.509,167.301 108.278,176.491 C99.866,176.232 91.961,173.92 85.048,170.074 C85.036,170.288 85.036,170.503 85.036,170.728 C85.036,195.572 102.719,216.31 126.186,221.013 C121.879,222.185 117.345,222.817 112.665,222.817 C109.361,222.817 106.147,222.49 103.023,221.892 C109.553,242.27 128.487,257.099 150.939,257.517 C133.381,271.274 111.267,279.473 87.236,279.473 C83.097,279.473 79.015,279.236 75,278.762 C97.701,293.309 124.653,301.801 153.623,301.801 Z" id="Combined-Shape"></path>
        </g>
    </g>
</svg>